<svg width="136" height="30" viewBox="0 0 136 30" fill="none" xmlns="http://www.w3.org/2000/svg">
<rect x="3" y="18" width="133" height="12" fill="#5F84E9" fill-opacity="0.1"/>
<path d="M15.016 4.368L10.384 21H5.488L0.688 4.368H4.84L8.008 17.928L10.984 4.368H15.016ZM20.1835 4.368V21H16.2475V4.368H20.1835ZM27.2148 4.368V17.88H33.6948L33.2868 21H23.2788V4.368H27.2148ZM39.5194 4.368V17.88H45.9994L45.5914 21H35.5834V4.368H39.5194ZM56.6481 21L55.7841 17.424H50.9361L50.0961 21H46.0161L51.0321 4.368H55.8081L60.8241 21H56.6481ZM51.6081 14.568H55.1121L53.3601 7.224L51.6081 14.568ZM69.01 3.96C71.154 3.96 73.002 4.64 74.554 6L72.562 8.088C71.97 7.64 71.418 7.32 70.906 7.128C70.41 6.92 69.834 6.816 69.178 6.816C67.946 6.816 66.962 7.304 66.226 8.28C65.49 9.24 65.122 10.704 65.122 12.672C65.122 14.8 65.402 16.312 65.962 17.208C66.522 18.088 67.394 18.528 68.578 18.528C69.41 18.528 70.162 18.344 70.834 17.976V14.208H68.674L68.29 11.424H74.65V19.656C73.786 20.216 72.834 20.648 71.794 20.952C70.754 21.256 69.714 21.408 68.674 21.408C66.146 21.408 64.242 20.672 62.962 19.2C61.682 17.712 61.042 15.536 61.042 12.672C61.042 10.848 61.386 9.28 62.074 7.968C62.778 6.656 63.73 5.664 64.93 4.992C66.146 4.304 67.506 3.96 69.01 3.96ZM87.4788 4.368L87.0708 7.176H81.2148V11.16H86.3268V13.92H81.2148V18.168H87.4788V21H77.2788V4.368H87.4788ZM106.424 21H102.56L102.272 14.496C102.192 12.944 102.152 11.56 102.152 10.344C102.152 9.416 102.176 8.536 102.224 7.704L99.6556 19.248H95.9356L93.1996 7.704C93.2956 9.096 93.3436 10.408 93.3436 11.64C93.3436 12.568 93.3196 13.536 93.2716 14.544L92.9836 21H89.1436L90.3916 4.368H95.3596L97.8556 15.648L100.184 4.368H105.176L106.424 21ZM117.539 21L116.675 17.424H111.827L110.987 21H106.907L111.923 4.368H116.699L121.715 21H117.539ZM112.499 14.568H116.003L114.251 7.224L112.499 14.568ZM128.311 4.368C130.503 4.368 132.207 4.824 133.423 5.736C134.639 6.648 135.247 8 135.247 9.792C135.247 11.664 134.647 13.08 133.447 14.04C132.263 14.984 130.671 15.456 128.671 15.456H126.871V21H122.935V4.368H128.311ZM128.335 12.624C129.263 12.624 129.967 12.408 130.447 11.976C130.943 11.528 131.191 10.8 131.191 9.792C131.191 8.048 130.215 7.176 128.263 7.176H126.871V12.624H128.335Z" fill="#5F84E9"/>
</svg>
