<svg width="823" height="699" viewBox="0 0 823 699" fill="none" xmlns="http://www.w3.org/2000/svg">
<g clip-path="url(#clip0_8124_224)">
<path d="M127.694 -87.375H1002.31V786.375H127.694V-87.375Z" fill="white"/>
<path d="M-90.9603 -87.375H1220.97V786.375H-90.9603V-87.375Z" fill="white"/>
<path fill-rule="evenodd" clip-rule="evenodd" d="M883.052 459.778H975.339H977.739C1028.7 459.778 1070.39 501.431 1070.39 552.339C1070.39 603.249 1028.7 644.901 977.739 644.901H707.247H660.66H177.119C94.5986 644.901 27.0869 577.454 27.0869 495.018C27.0869 412.581 94.6005 345.135 177.117 345.135C212.007 345.133 240.555 316.617 240.555 281.76C240.555 246.904 212.009 218.385 177.117 218.385H100.77C64.496 218.385 34.8168 188.735 34.8168 152.497C34.8168 116.258 64.496 86.6096 100.77 86.6096H197.314C211.435 86.6096 222.991 75.0656 222.991 60.958C222.991 46.8505 211.435 35.3065 197.314 35.3065H180.295C170.55 35.3065 162.576 27.3396 162.576 17.6043C162.576 7.86724 170.55 -0.0996094 180.295 -0.0996094H244.08C244.08 -0.0996094 268.452 -0.0996094 291.968 -0.0996094C315.487 -0.0996094 318.105 27.6577 377.513 27.6577C469.35 27.6577 456.85 27.6577 548.683 27.6577C561.403 27.6577 571.808 38.0553 571.808 50.7579C571.808 63.4622 561.401 73.8581 548.683 73.8581H526.478C508.05 73.8581 492.973 88.9215 492.973 107.328C492.973 125.736 508.05 140.8 526.478 140.8H559.895C650.14 140.8 662.887 164.359 678.693 211.22C694.499 258.081 776.587 261.859 776.587 261.859H888.832C916.603 261.859 939.324 284.558 939.324 312.301V312.303C939.324 340.044 916.603 362.743 888.832 362.743H883.052C856.342 362.743 834.488 384.576 834.488 411.26C834.488 437.946 856.343 459.778 883.052 459.778ZM130.565 35.31C140.353 35.31 148.288 27.3833 148.288 17.6078C148.288 7.83055 140.353 -0.0961163 130.565 -0.0961163C120.779 -0.0961163 112.843 7.83055 112.843 17.6078C112.843 27.3833 120.779 35.31 130.565 35.31Z" fill="#E2E8F5"/>
<path fill-rule="evenodd" clip-rule="evenodd" d="M875.081 644.901H866.97V595.69L836.217 626.413L854.725 644.901H847.079L832.393 630.231L817.708 644.901H810.06L828.569 626.413L797.816 595.69V644.901H789.704V261.865H797.816V271.195L807.155 261.865H814.801L797.816 278.833V279.298L832.393 313.839L866.97 279.298V278.833L849.985 261.865H857.631L866.97 271.195V261.865H875.081V363.409C872.291 363.876 869.58 364.58 866.97 365.502V364.125L864.74 366.352C852.7 371.29 843.044 380.938 838.1 392.966L836.218 394.846L837.07 395.698C836.402 397.649 835.86 399.657 835.445 401.711L832.394 398.665L797.817 433.208V433.672L832.394 468.215L852.077 448.552C853.476 449.716 854.944 450.801 856.467 451.804L836.217 472.034L866.97 502.756V457.024C869.58 457.945 872.293 458.651 875.081 459.116V644.901ZM866.968 579.945V518.501L836.215 549.224L866.968 579.945ZM866.968 348.382V286.935L836.215 317.659L866.968 348.382ZM797.816 286.937V348.384L828.569 317.661L797.816 286.937ZM797.816 364.125V425.571L828.569 394.848L797.816 364.125ZM797.816 441.314V502.758L828.569 472.035L797.816 441.314ZM797.816 518.501V579.945L828.569 549.224L797.816 518.501ZM866.968 356.021L832.391 321.479L797.814 356.021V356.485L832.391 391.028L866.968 356.485V356.021ZM866.968 510.396L832.391 475.854L797.814 510.396V510.863L832.391 545.406L866.968 510.863V510.396ZM866.968 587.585L832.391 553.042L797.814 587.585V588.052L832.391 622.593L866.968 588.052V587.585Z" fill="#BFCCE8"/>
<path fill-rule="evenodd" clip-rule="evenodd" d="M307.773 644.903H299.662V595.692L268.908 626.415L287.417 644.903H279.771L265.085 630.233L250.4 644.903H242.754L261.262 626.415L230.509 595.692V644.903H222.396V326.033C225.429 322.937 228.155 319.536 230.509 315.88V348.384L261.262 317.661L239.045 295.466C239.523 293.322 239.889 291.139 240.144 288.922L265.086 313.839L299.663 279.298V278.833L265.086 244.29L239.432 269.921C239.031 267.838 238.531 265.788 237.933 263.779L261.264 240.472L230.511 209.749V247.646C228.156 243.99 225.433 240.589 222.398 237.493V66.4246C222.785 64.6632 222.991 62.8353 222.991 60.962C222.991 59.0886 222.785 57.2607 222.398 55.4993V-0.0957031H230.511V39.632L261.264 8.90916L252.25 -0.0957031H259.896L265.088 5.08913L270.278 -0.0957031H277.926L268.912 8.90916L299.662 39.632V1.01046C302.532 1.86849 305.156 3.17212 307.773 4.75885V644.903ZM299.662 579.947V518.503L268.908 549.226L299.662 579.947ZM299.662 502.76V441.316L268.908 472.037L299.662 502.76ZM299.662 425.573V364.127L268.908 394.85L299.662 425.573ZM299.662 348.384V286.936L268.908 317.661L299.662 348.384ZM299.662 271.197V209.751L268.908 240.474L299.662 271.197ZM299.662 194.008V132.562L268.908 163.285L299.662 194.008ZM299.662 116.821V55.3752L268.908 86.0962L299.662 116.821ZM230.509 55.3752V116.821L261.262 86.0962L230.509 55.3752ZM230.509 132.562V194.008L261.262 163.287L230.509 132.562ZM230.509 364.127V425.573L261.262 394.85L230.509 364.127ZM230.509 441.316V502.76L261.262 472.037L230.509 441.316ZM230.509 518.503V579.947L261.262 549.226L230.509 518.503ZM299.662 47.2703L265.085 12.7275L230.507 47.2703V47.7351L265.085 82.278L299.662 47.7351V47.2703ZM299.662 124.459L265.085 89.9163L230.507 124.459V124.924L265.085 159.465L299.662 124.924V124.459ZM299.662 201.646L265.085 167.105L230.507 201.646V202.111L265.085 236.654L299.662 202.111V201.646ZM299.662 356.022L265.085 321.481L230.507 356.022V356.487L265.085 391.03L299.662 356.487V356.022ZM299.662 433.211L265.085 398.668L230.507 433.211V433.676L265.085 468.219L299.662 433.676V433.211ZM299.662 510.398L265.085 475.855L230.507 510.398V510.865L265.085 545.407L299.662 510.865V510.398ZM299.662 587.587L265.085 553.044L230.507 587.587V588.053L265.085 622.594L299.662 588.053V587.587Z" fill="#BFCCE8"/>
<path fill-rule="evenodd" clip-rule="evenodd" d="M193.684 644.903H181.73V611.351L150.524 642.528C147.4 641.964 144.307 641.293 141.251 640.536L181.73 600.095V599.409L130.783 548.511L79.837 599.409V600.095L107.363 627.594C92.5837 619.779 79.2493 609.569 67.8828 597.488V392.554C73.0413 387.072 78.6003 381.969 84.5214 377.305L130.783 423.521L181.73 372.625V371.94L156.356 346.589C159.719 346.119 163.116 345.757 166.547 345.516L181.73 360.684V344.967C185.834 344.669 189.831 343.975 193.684 342.926V644.903ZM193.684 220.601C189.831 219.553 185.834 218.859 181.73 218.56V156.414L136.418 201.685L153.142 218.393H141.877L130.783 207.312L119.693 218.393H108.427L125.149 201.685L79.837 156.414V214.967C75.6511 213.557 71.6506 211.736 67.8828 209.555V95.4506C71.6506 93.268 75.6493 91.4488 79.837 90.0386V133.216L125.149 87.9486L123.815 86.6153H137.752L136.416 87.9486L181.728 133.216V86.6135H193.683L193.684 220.601ZM193.684 35.3121H180.296C179.515 35.3121 178.746 35.2597 177.99 35.1619L181.732 31.424V30.7389L163.368 12.3919C164.201 9.71476 165.658 7.30321 167.565 5.33028L181.732 19.485V-0.0957031H193.686V35.3121H193.684ZM181.73 588.155V497.615L136.418 542.882L181.73 588.155ZM181.73 474.419V383.881L136.418 429.148L181.73 474.419ZM79.837 383.883V474.42L125.149 429.151L79.837 383.883ZM79.837 497.617V588.156L125.149 542.886L79.837 497.617ZM181.73 144.471L130.783 93.5755L79.837 144.471V145.156L130.783 196.054L181.73 145.156V144.471ZM181.73 485.676L130.783 434.778L79.837 485.676V486.361L130.783 537.257L181.73 486.361V485.676Z" fill="#BFCCE8"/>
<path fill-rule="evenodd" clip-rule="evenodd" d="M786.381 497.572H867.869C871.172 497.572 873.873 500.269 873.873 503.57V560.984C873.873 564.283 871.173 566.981 867.869 566.981H786.381C783.077 566.981 780.378 564.283 780.378 560.984V503.57C780.376 500.269 783.075 497.572 786.381 497.572Z" fill="#B6C7E6"/>
<path fill-rule="evenodd" clip-rule="evenodd" d="M796.96 520.494H857.29C859.175 520.494 860.718 522.037 860.718 523.919V540.631C860.718 542.514 859.175 544.057 857.29 544.057H796.96C795.075 544.057 793.53 542.514 793.53 540.631V523.919C793.53 522.035 795.073 520.494 796.96 520.494Z" fill="#90A9D5"/>
<path fill-rule="evenodd" clip-rule="evenodd" d="M823.297 524.494H852.966C853.377 524.494 853.714 524.828 853.714 525.242V528.889C853.714 529.298 853.378 529.635 852.966 529.635H823.297C822.886 529.635 822.55 529.3 822.55 528.889V525.242C822.55 524.828 822.886 524.494 823.297 524.494Z" fill="#E6E4EB"/>
<path fill-rule="evenodd" clip-rule="evenodd" d="M867.985 566.98H770.337C766.379 566.98 763.141 570.215 763.141 574.168V642.967C763.141 646.922 766.38 650.156 770.337 650.156H867.985C871.943 650.156 875.179 646.92 875.179 642.967V574.168C875.179 570.215 871.943 566.98 867.985 566.98Z" fill="#90A9D5"/>
<path fill-rule="evenodd" clip-rule="evenodd" d="M421.196 193.72C418.774 191.3 415.874 189.346 412.641 188.007C409.534 186.721 406.134 186.012 402.574 186.012C399.014 186.012 395.614 186.721 392.507 188.007C389.276 189.344 386.373 191.298 383.952 193.718C381.529 196.137 379.572 199.038 378.235 202.265C376.95 205.369 376.238 208.766 376.238 212.32C376.238 215.876 376.948 219.275 378.235 222.377C379.575 225.605 381.531 228.504 383.952 230.924C386.373 233.344 389.273 235.298 392.504 236.633C395.609 237.923 399.013 238.632 402.574 238.632C406.134 238.632 409.533 237.921 412.641 236.637C415.872 235.3 418.776 233.346 421.196 230.926C423.619 228.507 425.577 225.607 426.913 222.379C428.199 219.275 428.911 215.878 428.911 212.322C428.911 208.768 428.2 205.369 426.913 202.267C425.577 199.039 423.619 196.138 421.196 193.72ZM411.717 190.255C414.633 191.462 417.264 193.236 419.472 195.443C421.681 197.65 423.456 200.278 424.665 203.19C425.828 205.998 426.47 209.082 426.47 212.322C426.47 215.564 425.828 218.648 424.665 221.456C423.458 224.369 421.681 226.996 419.472 229.203C417.264 231.41 414.633 233.184 411.717 234.389C408.908 235.553 405.819 236.195 402.574 236.195C399.333 236.195 396.247 235.553 393.436 234.389C390.515 233.184 387.884 231.408 385.675 229.203C383.467 226.998 381.692 224.369 380.483 221.456C379.32 218.648 378.678 215.564 378.678 212.322C378.678 209.082 379.32 205.998 380.483 203.19C381.692 200.278 383.467 197.65 385.675 195.443C387.884 193.238 390.515 191.462 393.431 190.256C396.24 189.093 399.329 188.451 402.574 188.451C405.819 188.449 408.908 189.091 411.717 190.255ZM414.628 170.896C416.274 171.369 417.897 171.951 419.481 172.624C421.09 173.307 422.647 174.085 424.142 174.95C425.662 175.827 427.13 176.801 428.535 177.858C429.944 178.92 431.284 180.063 432.546 181.278C432.993 181.708 433.55 181.959 434.122 182.029C434.706 182.101 435.313 181.982 435.839 181.678C439.707 179.448 443.772 177.239 447.561 174.915C447.745 174.819 447.937 174.761 448.129 174.739C448.348 174.716 448.567 174.732 448.775 174.787C448.99 174.845 449.193 174.941 449.37 175.076C449.538 175.203 449.685 175.368 449.795 175.562C452.615 179.822 455.443 185.328 458.056 189.849C458.168 190.041 458.235 190.249 458.261 190.456C458.291 190.672 458.272 190.899 458.212 191.12C458.156 191.333 458.058 191.535 457.923 191.712C457.797 191.88 457.631 192.027 457.439 192.138C453.96 194.436 449.476 196.736 445.791 198.865C445.248 199.174 444.853 199.639 444.627 200.166C444.547 200.35 444.491 200.544 444.453 200.741L444.211 200.822L444.481 201.907C444.692 202.761 444.878 203.616 445.033 204.464C445.184 205.29 445.317 206.157 445.427 207.059C445.534 207.939 445.614 208.813 445.667 209.675C445.717 210.517 445.743 211.401 445.743 212.32C445.743 213.239 445.717 214.122 445.667 214.964C445.616 215.827 445.535 216.703 445.427 217.584C445.317 218.485 445.184 219.35 445.033 220.177C444.876 221.028 444.69 221.883 444.481 222.737C444.323 223.37 444.4 224.006 444.656 224.553C444.907 225.1 445.343 225.558 445.901 225.844L456.218 231.796L456.214 231.801L457.437 232.506C457.631 232.617 457.796 232.764 457.923 232.932C458.055 233.107 458.154 233.309 458.21 233.524C458.27 233.745 458.289 233.972 458.259 234.19C458.231 234.396 458.165 234.603 458.055 234.797L450.417 248.018L450.412 248.016L449.793 249.084C449.681 249.276 449.536 249.441 449.368 249.568C449.191 249.701 448.988 249.799 448.773 249.857C448.554 249.916 448.327 249.932 448.112 249.906C447.907 249.879 447.701 249.811 447.507 249.699C443.812 247.38 439.642 245.166 435.831 242.968C435.287 242.659 434.69 242.55 434.123 242.618C433.537 242.688 432.983 242.945 432.547 243.363L432.542 243.366C431.281 244.583 429.939 245.725 428.529 246.788C427.125 247.843 425.659 248.817 424.139 249.694C422.634 250.564 421.065 251.347 419.444 252.034C417.855 252.709 416.204 253.294 414.506 253.78C413.907 253.951 413.409 254.307 413.059 254.769C412.707 255.239 412.505 255.823 412.505 256.432L412.499 269.881C412.499 270.107 412.456 270.322 412.375 270.514C412.291 270.713 412.165 270.9 412.008 271.057C411.854 271.213 411.668 271.34 411.464 271.424C411.271 271.505 411.058 271.55 410.831 271.55H394.311C394.085 271.55 393.872 271.506 393.679 271.424C393.476 271.34 393.289 271.213 393.134 271.061C392.978 270.902 392.852 270.715 392.768 270.516C392.687 270.325 392.644 270.11 392.644 269.883V256.434C392.644 255.793 392.42 255.2 392.044 254.727C391.664 254.246 391.129 253.892 390.518 253.747C388.871 253.273 387.251 252.695 385.666 252.02C384.058 251.337 382.5 250.557 381.004 249.694C379.484 248.817 378.018 247.843 376.614 246.786C375.202 245.725 373.862 244.581 372.601 243.366C372.132 242.917 371.544 242.666 370.941 242.61C370.329 242.554 369.699 242.702 369.169 243.052L357.645 249.699C357.454 249.811 357.244 249.878 357.033 249.904C356.818 249.932 356.59 249.914 356.37 249.855C356.153 249.797 355.952 249.699 355.775 249.566C355.607 249.439 355.462 249.275 355.35 249.082C352.612 244.312 349.831 239.562 347.088 234.793C346.976 234.601 346.91 234.393 346.884 234.183C346.856 233.967 346.873 233.741 346.933 233.523C346.99 233.306 347.088 233.102 347.22 232.93C347.345 232.759 347.508 232.614 347.695 232.504L359.354 225.778C359.895 225.468 360.292 225.005 360.517 224.476C360.578 224.333 360.627 224.184 360.664 224.034L360.969 223.973L360.662 222.737C360.451 221.884 360.265 221.03 360.11 220.181C359.958 219.352 359.826 218.487 359.714 217.584C359.609 216.705 359.529 215.829 359.475 214.964C359.424 214.122 359.398 213.241 359.398 212.32C359.398 211.403 359.424 210.52 359.475 209.678C359.527 208.817 359.608 207.943 359.714 207.062C359.828 206.148 359.959 205.28 360.11 204.457C360.267 203.609 360.451 202.756 360.662 201.903C360.82 201.267 360.741 200.629 360.486 200.084C360.23 199.539 359.8 199.081 359.246 198.796L347.697 192.137C347.508 192.03 347.347 191.883 347.218 191.712C347.087 191.542 346.989 191.338 346.931 191.118C346.871 190.898 346.854 190.672 346.882 190.457C346.91 190.248 346.976 190.04 347.087 189.847C349.906 185.659 352.731 180.063 355.348 175.56C355.462 175.366 355.605 175.202 355.773 175.074C355.95 174.941 356.151 174.843 356.368 174.786C356.587 174.726 356.814 174.709 357.031 174.737C357.234 174.763 357.442 174.831 357.64 174.945L369.307 181.673C369.856 181.994 370.472 182.101 371.056 182.022C371.642 181.942 372.2 181.673 372.632 181.243C373.901 180.025 375.235 178.887 376.626 177.84C378.011 176.797 379.475 175.831 381.001 174.948C382.505 174.078 384.076 173.297 385.696 172.61C387.284 171.934 388.935 171.348 390.632 170.863C391.232 170.691 391.729 170.335 392.079 169.873C392.434 169.403 392.635 168.82 392.635 168.21L392.64 154.761C392.64 154.536 392.684 154.321 392.763 154.129C392.847 153.929 392.973 153.744 393.132 153.587C393.286 153.43 393.471 153.305 393.676 153.218C393.868 153.138 394.082 153.094 394.307 153.094H410.827C411.054 153.094 411.268 153.138 411.46 153.218C411.663 153.304 411.85 153.43 412.006 153.585C412.307 153.889 412.496 154.307 412.496 154.761V168.21C412.496 168.855 412.718 169.447 413.089 169.917C413.482 170.399 414.019 170.753 414.628 170.896ZM420.436 170.386C422.134 171.109 423.778 171.93 425.361 172.846C426.978 173.779 428.529 174.805 430.002 175.916C431.48 177.03 432.894 178.237 434.234 179.525C434.284 179.574 434.347 179.602 434.417 179.611C434.487 179.619 434.559 179.605 434.618 179.572C438.54 177.311 442.469 175.057 446.385 172.783C446.851 172.531 447.353 172.379 447.858 172.32C448.381 172.261 448.908 172.303 449.406 172.435C449.921 172.573 450.412 172.813 450.846 173.143C451.262 173.461 451.624 173.865 451.899 174.344C454.742 178.943 457.442 183.925 460.161 188.629C460.437 189.108 460.607 189.625 460.673 190.15C460.741 190.693 460.705 191.238 460.565 191.749C460.428 192.264 460.189 192.754 459.856 193.187C459.538 193.605 459.136 193.966 458.656 194.242C454.904 196.556 450.836 198.754 446.999 200.969C446.938 201.003 446.893 201.058 446.866 201.121C446.839 201.185 446.832 201.259 446.847 201.325L447.115 202.414L447.099 202.419C447.216 202.947 447.325 203.483 447.424 204.027C447.596 204.96 447.738 205.877 447.846 206.775C447.953 207.667 448.037 208.588 448.096 209.535C448.152 210.485 448.182 211.417 448.182 212.322C448.182 213.229 448.152 214.159 448.096 215.108C448.038 216.056 447.955 216.979 447.846 217.87C447.736 218.769 447.592 219.686 447.424 220.616C447.253 221.544 447.057 222.444 446.844 223.319C446.825 223.392 446.833 223.466 446.865 223.53C446.9 223.602 446.949 223.658 447.008 223.688C451.292 225.973 455.644 228.663 459.877 231.108L459.727 231.296L459.856 231.457C460.189 231.891 460.427 232.382 460.563 232.897C460.701 233.409 460.74 233.953 460.671 234.498C460.605 235.02 460.435 235.538 460.157 236.016L451.283 251.373L451.119 251.276C451.03 251.354 450.937 251.431 450.844 251.503C450.41 251.833 449.919 252.074 449.405 252.21C448.894 252.347 448.35 252.385 447.808 252.317C447.297 252.252 446.793 252.09 446.326 251.831C442.444 249.773 438.446 247.286 434.613 245.074C434.557 245.042 434.487 245.033 434.419 245.04C434.347 245.049 434.279 245.081 434.228 245.128C432.89 246.416 431.478 247.622 430 248.735C428.526 249.844 426.976 250.87 425.365 251.802C423.77 252.722 422.113 253.551 420.404 254.276C418.706 254.998 416.96 255.616 415.179 256.128C415.109 256.148 415.05 256.19 415.008 256.244C414.964 256.303 414.938 256.373 414.943 256.441V269.89C414.943 270.44 414.831 270.97 414.628 271.456C414.416 271.961 414.11 272.413 413.731 272.789C413.351 273.166 412.9 273.472 412.4 273.68C411.915 273.883 411.385 273.995 410.832 273.995H394.313C393.763 273.995 393.233 273.883 392.747 273.68C392.248 273.472 391.795 273.166 391.412 272.789C391.038 272.415 390.732 271.961 390.52 271.456C390.319 270.97 390.205 270.44 390.205 269.89V256.441C390.205 256.361 390.181 256.289 390.141 256.237C390.099 256.184 390.034 256.142 389.959 256.125L389.906 256.106C388.113 255.588 386.38 254.973 384.714 254.264C383.018 253.542 381.372 252.719 379.787 251.805C378.172 250.872 376.622 249.846 375.15 248.736C373.67 247.623 372.256 246.416 370.916 245.126C370.862 245.072 370.792 245.042 370.726 245.037C370.654 245.032 370.581 245.049 370.516 245.089L358.859 251.812C358.381 252.088 357.865 252.256 357.344 252.322C356.804 252.392 356.26 252.354 355.745 252.216C355.231 252.078 354.74 251.838 354.304 251.508C353.898 251.199 353.543 250.805 353.268 250.342C350.206 245.421 347.312 240.032 344.391 234.978L344.549 234.884C344.517 234.756 344.496 234.625 344.479 234.496C344.41 233.956 344.447 233.411 344.583 232.901C344.722 232.385 344.961 231.892 345.294 231.461C345.612 231.043 346.014 230.683 346.492 230.407L358.154 223.683C358.214 223.648 358.259 223.593 358.285 223.53C358.313 223.464 358.322 223.389 358.304 223.319L358.002 222.087L358.019 222.084C357.914 221.605 357.818 221.117 357.725 220.623C357.554 219.691 357.412 218.772 357.304 217.872C357.194 216.979 357.111 216.056 357.054 215.109C356.996 214.16 356.966 213.231 356.966 212.324C356.966 211.419 356.996 210.489 357.054 209.538C357.11 208.591 357.194 207.668 357.304 206.768C357.414 205.877 357.554 204.962 357.725 204.021C357.897 203.099 358.091 202.197 358.306 201.327C358.324 201.257 358.313 201.182 358.283 201.11C358.252 201.047 358.2 200.991 358.135 200.96L346.49 194.242C346.009 193.965 345.607 193.605 345.292 193.187C344.961 192.752 344.72 192.261 344.583 191.75C344.447 191.24 344.409 190.695 344.479 190.155C344.545 189.645 344.708 189.141 344.97 188.67C347.746 183.535 350.928 178.356 353.865 173.276L354.031 173.374C354.12 173.293 354.213 173.218 354.304 173.145C354.74 172.815 355.231 172.575 355.745 172.437C356.256 172.301 356.8 172.262 357.342 172.33C357.871 172.397 358.385 172.563 358.857 172.834L359.72 173.328L359.716 173.337L370.532 179.572C370.598 179.611 370.67 179.621 370.74 179.612C370.808 179.604 370.874 179.572 370.923 179.52L370.951 179.492C372.277 178.218 373.686 177.017 375.174 175.899C376.654 174.787 378.195 173.765 379.79 172.846C381.384 171.927 383.039 171.097 384.748 170.373C386.446 169.652 388.192 169.033 389.973 168.523C390.043 168.503 390.102 168.46 390.142 168.407C390.188 168.348 390.214 168.278 390.209 168.21V154.761C390.209 154.212 390.321 153.681 390.524 153.195C390.735 152.692 391.041 152.238 391.421 151.862C391.801 151.485 392.252 151.18 392.75 150.971C393.237 150.768 393.767 150.656 394.316 150.656H410.836C411.387 150.656 411.917 150.768 412.403 150.971C412.903 151.18 413.355 151.485 413.739 151.862C414.483 152.605 414.945 153.632 414.945 154.759V168.208C414.945 168.287 414.971 168.357 415.011 168.414C415.053 168.467 415.118 168.507 415.191 168.524L415.244 168.544C417.037 169.063 418.77 169.68 420.436 170.386Z" fill="#BFCCE8"/>
<path fill-rule="evenodd" clip-rule="evenodd" d="M760.861 216.486C760.861 215.428 761.72 214.57 762.778 214.57C763.837 214.57 764.696 215.428 764.696 216.486V220.989H769.203C770.262 220.989 771.121 221.847 771.121 222.904C771.121 223.961 770.262 224.819 769.203 224.819H764.696V229.324C764.696 230.382 763.837 231.24 762.778 231.24C761.72 231.24 760.861 230.382 760.861 229.324V224.819H756.352C755.294 224.819 754.435 223.961 754.435 222.904C754.435 221.847 755.294 220.989 756.352 220.989H760.861V216.486Z" fill="#BFCCE8"/>
<path fill-rule="evenodd" clip-rule="evenodd" d="M637.362 69.8921C635.34 67.872 632.546 66.6208 629.459 66.6208C626.373 66.6208 623.578 67.872 621.554 69.8921C619.532 71.9122 618.279 74.7047 618.279 77.7891C618.279 80.8734 619.53 83.6642 621.554 85.686C623.578 87.7061 626.371 88.9573 629.459 88.9573C632.546 88.9573 635.34 87.7061 637.362 85.686C639.384 83.6642 640.636 80.8734 640.636 77.7891C640.635 74.7047 639.384 71.9122 637.362 69.8921ZM634.946 58.8235C636.494 59.2708 637.964 59.8999 639.326 60.6863C640.726 61.4936 642.017 62.4687 643.171 63.5802C643.395 63.7968 643.733 63.83 643.99 63.6798L649.185 60.6845L649.213 60.6671C649.51 60.5063 649.85 60.4748 650.161 60.5587C650.481 60.6444 650.766 60.8506 650.943 61.1546L650.966 61.1913L654.62 67.5138C654.796 67.8196 654.831 68.1708 654.744 68.4924C654.658 68.8104 654.452 69.097 654.146 69.2735L654.111 69.2962L648.959 72.267C648.69 72.4225 648.564 72.7353 648.636 73.0236H648.634C648.823 73.789 648.97 74.5754 649.068 75.3828C649.164 76.1691 649.213 76.9712 649.213 77.7873C649.213 78.6034 649.164 79.4073 649.068 80.1936C648.97 80.9992 648.823 81.7856 648.632 82.5528C648.555 82.8708 648.713 83.1906 648.996 83.3304L654.146 86.3011C654.452 86.4776 654.658 86.7642 654.744 87.0823C654.83 87.4021 654.795 87.7551 654.62 88.0591L650.945 94.42L650.943 94.4183C650.766 94.7241 650.481 94.9303 650.161 95.0159C649.841 95.1016 649.489 95.0666 649.185 94.8919L649.146 94.8709L643.988 91.8949C643.719 91.7411 643.386 91.7918 643.173 91.9962C642.018 93.1094 640.727 94.081 639.33 94.8884C637.957 95.6817 636.48 96.3143 634.92 96.7599C634.617 96.8456 634.421 97.1217 634.42 97.4187V103.406C634.42 103.757 634.274 104.078 634.042 104.311C633.807 104.543 633.487 104.688 633.134 104.688H625.782C625.429 104.688 625.108 104.543 624.876 104.311C624.643 104.078 624.498 103.757 624.498 103.406V97.4187C624.498 97.0955 624.272 96.8228 623.97 96.7512C622.422 96.3056 620.952 95.6747 619.59 94.8884C618.192 94.081 616.901 93.1059 615.745 91.9927C615.51 91.7673 615.155 91.7411 614.893 91.9159L609.734 94.8901C609.43 95.0666 609.078 95.1016 608.758 95.0142C608.438 94.9286 608.153 94.7223 607.976 94.4165L607.954 94.3816L604.3 88.0556H604.301C604.125 87.7498 604.09 87.4003 604.177 87.0805C604.263 86.7607 604.467 86.4741 604.772 86.2994L609.962 83.3059C610.233 83.1504 610.357 82.8376 610.285 82.5493C610.097 81.7839 609.95 80.9957 609.852 80.1901C609.755 79.4038 609.706 78.6017 609.706 77.7838C609.706 76.966 609.755 76.1639 609.852 75.3775C609.95 74.5719 610.095 73.7838 610.285 73.0184C610.364 72.6986 610.205 72.3788 609.923 72.2408L604.772 69.27C604.467 69.0953 604.263 68.8087 604.177 68.4889C604.091 68.1691 604.126 67.8178 604.301 67.5138L604.322 67.4753L607.976 61.1529C608.153 60.8488 608.44 60.6426 608.758 60.557C609.078 60.4713 609.43 60.5063 609.734 60.681L614.926 63.6763C615.203 63.837 615.547 63.7811 615.761 63.5627C616.912 62.4565 618.197 61.4866 619.591 60.6828C620.963 59.8912 622.441 59.2586 624.001 58.8112C624.302 58.7273 624.5 58.4512 624.5 58.1524V52.1672C624.5 51.8142 624.645 51.4944 624.878 51.2603C625.11 51.0279 625.432 50.8828 625.784 50.8828H633.136C633.489 50.8828 633.809 51.0279 634.044 51.2603C634.276 51.4927 634.421 51.8142 634.421 52.1672V58.1524C634.42 58.4792 634.644 58.7518 634.946 58.8235Z" fill="#BFCCE8"/>
<path fill-rule="evenodd" clip-rule="evenodd" d="M14.4733 41.5266C14.4733 40.4694 15.3305 39.6113 16.3905 39.6113C17.4488 39.6113 18.3077 40.4694 18.3077 41.5266V46.0299H22.8155C23.8738 46.0299 24.7344 46.8879 24.7344 47.9469C24.7344 49.0041 23.8755 49.8622 22.8155 49.8622H18.3077V54.3672C18.3077 55.4245 17.4505 56.2825 16.3905 56.2825C15.3305 56.2825 14.4733 55.4245 14.4733 54.3672V49.8622H9.96378C8.90724 49.8622 8.0466 49.0041 8.0466 47.9469C8.0466 46.8879 8.90549 46.0299 9.96378 46.0299H14.4733V41.5266Z" fill="#BFCCE8"/>
<path fill-rule="evenodd" clip-rule="evenodd" d="M514.989 171.197C512.965 169.177 510.169 167.926 507.082 167.926C503.996 167.926 501.203 169.177 499.177 171.197C497.157 173.217 495.904 176.01 495.904 179.094C495.904 182.177 497.157 184.969 499.177 186.989C501.201 189.009 503.996 190.26 507.082 190.26C510.169 190.26 512.963 189.009 514.989 186.989C517.011 184.967 518.261 182.177 518.261 179.094C518.261 176.01 517.012 173.217 514.989 171.197ZM512.573 160.127C514.123 160.574 515.592 161.205 516.955 161.991C518.354 162.799 519.643 163.774 520.798 164.885C521.023 165.102 521.358 165.135 521.616 164.985L526.812 161.989L526.84 161.972C527.139 161.811 527.476 161.781 527.788 161.865C528.108 161.951 528.393 162.157 528.57 162.461L528.591 162.498L532.247 168.82C532.423 169.124 532.456 169.477 532.371 169.797C532.285 170.115 532.079 170.404 531.773 170.578L531.738 170.601L526.584 173.572C526.317 173.727 526.191 174.04 526.262 174.329H526.259C526.45 175.094 526.595 175.88 526.695 176.688C526.791 177.474 526.838 178.276 526.838 179.094C526.838 179.91 526.791 180.714 526.695 181.499C526.595 182.306 526.45 183.092 526.259 183.858C526.182 184.176 526.339 184.495 526.623 184.635L531.773 187.606C532.079 187.783 532.283 188.069 532.369 188.387C532.455 188.707 532.42 189.06 532.245 189.364L528.568 195.725C528.39 196.031 528.104 196.233 527.786 196.319C527.466 196.405 527.114 196.37 526.81 196.195L526.772 196.174L521.615 193.2C521.345 193.044 521.011 193.093 520.798 193.299C519.643 194.413 518.354 195.386 516.955 196.193C515.583 196.987 514.105 197.619 512.545 198.065C512.242 198.15 512.048 198.427 512.046 198.725V204.711C512.046 205.062 511.901 205.383 511.669 205.618C511.434 205.85 511.114 205.995 510.759 205.995H503.409C503.057 205.995 502.733 205.85 502.499 205.618C502.266 205.385 502.121 205.064 502.121 204.711V198.725C502.121 198.4 501.896 198.129 501.593 198.056C500.043 197.61 498.574 196.981 497.211 196.193C495.812 195.388 494.523 194.413 493.37 193.299C493.134 193.072 492.777 193.048 492.516 193.223L487.358 196.197C487.052 196.373 486.702 196.408 486.38 196.321C486.062 196.235 485.775 196.029 485.6 195.725L485.577 195.69L481.921 189.364C481.744 189.06 481.711 188.709 481.797 188.389C481.884 188.069 482.089 187.783 482.393 187.608L487.583 184.614C487.853 184.459 487.977 184.148 487.907 183.858C487.718 183.092 487.573 182.304 487.475 181.499C487.379 180.712 487.33 179.91 487.33 179.094C487.33 178.276 487.379 177.474 487.475 176.686C487.573 175.88 487.718 175.092 487.907 174.327C487.986 174.009 487.828 173.687 487.545 173.549L482.395 170.578C482.091 170.404 481.886 170.117 481.799 169.797C481.713 169.477 481.748 169.126 481.923 168.822L481.946 168.785L485.6 162.461C485.778 162.157 486.065 161.951 486.382 161.865C486.702 161.78 487.053 161.815 487.359 161.989H487.358L492.555 164.985C492.829 165.145 493.174 165.091 493.387 164.871C494.538 163.765 495.824 162.795 497.215 161.991C498.586 161.198 500.068 160.567 501.626 160.12C501.929 160.034 502.125 159.76 502.125 159.461V153.474C502.125 153.121 502.27 152.801 502.503 152.567C502.737 152.334 503.059 152.189 503.412 152.189H510.762C511.116 152.189 511.438 152.334 511.672 152.567C511.905 152.799 512.05 153.121 512.05 153.474V159.461C512.046 159.784 512.27 160.057 512.573 160.127Z" fill="#BFCCE8"/>
<path fill-rule="evenodd" clip-rule="evenodd" d="M590.561 164.763C590.561 163.706 591.42 162.848 592.478 162.848C593.536 162.848 594.395 163.706 594.395 164.763V169.266H598.903C599.961 169.266 600.82 170.124 600.82 171.181C600.82 172.239 599.961 173.097 598.903 173.097H594.395V177.6C594.395 178.657 593.538 179.515 592.478 179.515C591.42 179.515 590.561 178.657 590.561 177.6V173.097H586.053C584.995 173.097 584.136 172.239 584.136 171.181C584.136 170.124 584.993 169.266 586.053 169.266H590.561V164.763Z" fill="#BFCCE8"/>
<path fill-rule="evenodd" clip-rule="evenodd" d="M582.747 376.853C582.747 375.797 583.606 374.938 584.664 374.938C585.723 374.938 586.581 375.796 586.581 376.853V381.356H591.089C592.147 381.356 593.006 382.214 593.006 383.273C593.006 384.33 592.149 385.188 591.089 385.188H586.581V389.692C586.581 390.749 585.723 391.609 584.664 391.609C583.606 391.609 582.747 390.751 582.747 389.692V385.188H578.238C577.179 385.188 576.32 384.332 576.32 383.273C576.32 382.216 577.179 381.356 578.238 381.356H582.747V376.853Z" fill="#BFCCE8"/>
<path fill-rule="evenodd" clip-rule="evenodd" d="M750.765 281.87C750.765 280.813 751.624 279.955 752.682 279.955C753.74 279.955 754.599 280.813 754.599 281.87V286.374H759.107C760.165 286.374 761.024 287.232 761.024 288.289C761.024 289.346 760.165 290.204 759.107 290.204H754.599V294.707C754.599 295.765 753.74 296.623 752.682 296.623C751.624 296.623 750.765 295.765 750.765 294.707V290.204H746.257C745.199 290.204 744.34 289.346 744.34 288.289C744.34 287.232 745.199 286.374 746.257 286.374H750.765V281.87Z" fill="#BFCCE8"/>
<path fill-rule="evenodd" clip-rule="evenodd" d="M113.461 270.534C113.461 269.477 114.318 268.619 115.378 268.619C116.438 268.619 117.297 269.477 117.297 270.534V275.038H121.803C122.861 275.038 123.722 275.896 123.722 276.953C123.722 278.01 122.863 278.868 121.803 278.868H117.297V283.372C117.297 284.429 116.438 285.287 115.378 285.287C114.32 285.287 113.461 284.429 113.461 283.372V278.868H108.953C107.895 278.868 107.034 278.01 107.034 276.953C107.034 275.896 107.893 275.038 108.953 275.038H113.461V270.534Z" fill="#BFCCE8"/>
<path fill-rule="evenodd" clip-rule="evenodd" d="M394.664 411.803C394.664 411.803 383.243 415.584 374.235 426.511C369.141 432.691 306.807 551.991 302.803 559.755C298.803 567.522 298.809 587.156 308.254 599.238C311.92 603.932 322.459 617.064 333.978 631.376H371.322C357.762 611.049 340.058 584.468 338.788 582.329C336.714 578.832 335.675 575.447 339.462 569.541C343.252 563.631 393.149 502.856 393.149 502.856C393.149 502.856 417.681 434.345 394.664 411.803Z" fill="#0F1630" stroke="#0E1632" stroke-width="0.216" stroke-miterlimit="22.9256"/>
<path fill-rule="evenodd" clip-rule="evenodd" d="M460.227 402.209C460.227 402.209 397.374 411.133 394.666 411.805C391.956 412.476 387.368 418.791 384.896 423.051C382.423 427.314 379.519 488.602 378.111 505.764C376.703 522.926 382.244 597.744 380.595 617.838C380.322 621.172 379.81 625.866 379.145 631.378H567.156C569.568 609.157 586.335 539.629 587.706 522.923C589.114 505.762 596.237 444.818 594.491 440.212C592.747 435.607 589.249 428.628 586.685 427.525C584.122 426.424 522.825 407.334 522.825 407.334L491.402 410.798L460.227 402.209Z" fill="#CEC9D0"/>
<path fill-rule="evenodd" clip-rule="evenodd" d="M460.227 402.209C460.227 402.209 456.062 402.803 449.839 403.691C450.125 405.211 450.846 406.641 451.99 407.953C476.409 435.913 501.366 437.958 530.015 414.342C531.367 413.227 532.315 411.925 532.843 410.461C526.836 408.586 522.824 407.336 522.824 407.336L491.4 410.8L460.227 402.209Z" fill="white"/>
<path fill-rule="evenodd" clip-rule="evenodd" d="M471.22 341.729L470.683 357.36C470.683 357.36 468.066 389.257 467.667 394.101C467.476 396.441 464.763 399.62 460.226 402.209C480.774 425.738 498.716 427.207 522.824 407.335C518.769 404.043 516.61 400.465 516.803 398.124C517.2 393.282 519.819 361.383 519.819 361.383L521.834 345.872C521.834 345.872 509.215 346.856 496.13 348.626C483.511 344.752 471.22 341.729 471.22 341.729Z" fill="#E8685B"/>
<path fill-rule="evenodd" clip-rule="evenodd" d="M455.032 402.949C455.032 402.949 462.298 434.326 462.839 440.711C463.377 447.096 471.917 511.378 471.025 522.244C470.621 527.188 460.787 577.418 450.085 631.375H364.451C366.55 618.225 368.355 606.884 369.323 600.481C372.802 577.46 375.136 529.612 374.376 500.061C373.615 470.511 380.967 426.167 381.842 421.957C382.718 417.749 391.111 412.489 393.712 411.512L455.032 402.949Z" fill="#0F1630"/>
<path fill-rule="evenodd" clip-rule="evenodd" d="M464.41 454.136C466.986 475.318 471.699 514.03 471.023 522.243C471.023 522.243 429.372 476.94 430.004 472.475C430.635 468.006 447.582 434.68 447.582 434.68C447.582 434.68 454.862 443.041 464.41 454.136Z" fill="#3D4155"/>
<path fill-rule="evenodd" clip-rule="evenodd" d="M457.121 402.652C457.121 402.652 455.277 401.006 454.618 400.95C453.958 400.897 442.658 404.716 442.658 404.716C442.658 404.716 426.173 430.607 425.902 433.913C425.633 437.221 466.385 470.528 466.385 470.528L462.773 440.071C462.773 440.071 456.865 410.297 455.032 402.949L457.121 402.652Z" fill="#545A6C"/>
<path fill-rule="evenodd" clip-rule="evenodd" d="M585.952 427.465C585.952 427.465 596.605 433.053 603.712 445.302C607.731 452.227 649.792 580.072 652.475 588.385C655.159 596.7 651.952 616.071 640.663 626.454C639.44 627.578 637.582 629.263 635.245 631.375H588.64C600.985 618.152 612.161 606.145 613.289 604.803C615.906 601.691 617.483 598.519 614.707 592.072C611.933 585.628 572.605 517.547 572.605 517.547C572.605 517.547 559.57 445.962 585.952 427.465Z" fill="#0F1630"/>
<path fill-rule="evenodd" clip-rule="evenodd" d="M527.833 408.908C527.833 408.908 515.55 438.684 513.976 444.898C512.405 451.11 493.505 513.145 492.611 524.013C492.214 528.844 493.655 577.83 495.369 631.375H580.081C580.12 625.789 580.16 621.095 580.205 617.747C580.524 594.468 586.02 546.879 591.586 517.846C597.152 488.813 597.126 443.863 596.946 439.568C596.767 435.273 589.343 428.718 586.935 427.332L527.833 408.908Z" fill="#0F1630"/>
<path fill-rule="evenodd" clip-rule="evenodd" d="M510.236 457.889C504.243 478.37 493.286 515.8 492.611 524.011C492.611 524.011 541.091 486.087 541.194 481.577C541.301 477.066 530.009 441.428 530.009 441.428C530.009 441.428 521.466 448.495 510.236 457.889Z" fill="#3D4155"/>
<path fill-rule="evenodd" clip-rule="evenodd" d="M525.824 408.278C525.824 408.278 527.909 406.95 528.566 407.006C529.228 407.058 539.753 412.666 539.753 412.666C539.753 412.666 551.8 440.891 551.525 444.199C551.256 447.506 505.618 473.741 505.618 473.741L514.146 444.278C514.146 444.278 524.825 415.864 527.832 408.912L525.824 408.278Z" fill="#545A6C"/>
<path fill-rule="evenodd" clip-rule="evenodd" d="M548.91 351.251C549.227 351.323 549.534 351.405 549.841 351.5L549.849 351.503C555.482 353.23 559.384 358.657 558.944 364.779C558.428 371.895 552.237 377.247 545.118 376.733C537.995 376.22 532.637 370.037 533.151 362.923C533.447 358.788 535.665 355.248 538.866 353.111C538.191 356.878 538.367 361.633 543.176 362.546L543.713 355.117C543.928 352.108 546.856 350.982 548.91 351.251Z" fill="#E8685B"/>
<path fill-rule="evenodd" clip-rule="evenodd" d="M455.98 342.783C455.659 342.797 455.338 342.822 455.022 342.857L455.011 342.858V342.857C449.16 343.536 444.336 348.172 443.664 354.271C442.882 361.361 448 367.744 455.095 368.526C462.194 369.308 468.584 364.194 469.367 357.106C469.824 352.985 468.284 349.104 465.524 346.421C465.505 350.25 464.469 354.893 459.577 354.923L460.395 347.521C460.726 344.525 458.048 342.888 455.98 342.783Z" fill="#E8685B"/>
<path fill-rule="evenodd" clip-rule="evenodd" d="M508.31 282.761H508.315C532.554 284.97 550.586 306.596 548.373 330.818L544.717 370.876C542.504 395.096 520.854 413.106 496.615 410.897L496.609 410.895C472.369 408.686 454.337 387.061 456.55 362.839L460.206 322.783C462.419 298.562 484.067 280.553 508.31 282.761Z" fill="#F4AD85"/>
<path fill-rule="evenodd" clip-rule="evenodd" d="M545.646 311.105C547.986 317.204 549.006 323.905 548.375 330.82L544.719 370.876C542.635 393.688 523.313 410.987 500.82 411.079C526.448 409.11 531.194 378.852 533.151 362.92C535.105 346.983 529.135 343.418 526.759 342.628C524.386 341.836 487.167 335.668 478.933 334.717C470.698 333.768 466.558 338.331 466.558 338.331L463.098 333.293L466.423 322.535C466.423 322.535 463.582 322.63 460.232 322.546C460.511 319.675 461.063 316.893 461.859 314.221C466.617 312.545 471.963 310.525 476.402 307.662C486.219 301.335 533.097 309.246 540.697 309.246C541.834 309.246 543.547 309.927 545.646 311.105Z" fill="#ED9072"/>
<path fill-rule="evenodd" clip-rule="evenodd" d="M462.944 344.037C462.944 344.037 462.676 346.981 462.424 349.714C462.174 352.447 459.356 355.264 457.259 355.074L457.826 348.87C457.826 348.87 457.352 344.215 451.696 343.699C436.165 322.19 441.343 290.764 461.361 276.05C481.381 261.336 521.26 263.91 527.995 266.857C534.729 269.803 540.808 282.228 540.808 282.228C540.808 282.228 547.185 277.508 552.407 280.739C557.628 283.972 572.794 320.122 572.007 328.744C571.22 337.367 552.954 352.926 552.954 352.926C547.301 352.411 545.994 356.904 545.994 356.904L545.427 363.107C543.33 362.917 541.068 359.637 541.315 356.902C541.565 354.169 541.835 351.224 541.835 351.224C541.637 351.114 541.444 351.001 541.252 350.887C535.906 347.416 536.968 336.818 536.968 336.818L541.894 329.933L532.116 317.083L520.865 313.387L495.307 314.366C495.307 314.366 465.167 318.109 467.805 326.871C470.443 335.637 462.944 344.037 462.944 344.037Z" fill="#0E1632"/>
<path fill-rule="evenodd" clip-rule="evenodd" d="M462.944 344.036C462.636 347.409 460.376 362.479 456.444 362.121C444.718 337.446 433.889 311.691 451.359 286.412C453.414 302.68 469.633 312.602 485.876 316.016C477.282 317.886 466.159 321.399 467.805 326.868C470.443 335.636 462.944 344.036 462.944 344.036ZM570.882 321.175C571.722 324.425 572.159 327.09 572.007 328.744C571.4 335.388 549.258 367.472 544.341 374.764C541.782 374.532 541.441 355.526 541.832 351.225C541.635 351.115 541.444 351.001 541.25 350.888C535.904 347.417 536.966 336.819 536.966 336.819L541.892 329.934L532.114 317.082L521.38 313.556C526.784 311.379 528.342 309.089 528.342 309.089C550.53 331.513 563.404 330.288 570.882 321.175Z" fill="#010518"/>
<path fill-rule="evenodd" clip-rule="evenodd" d="M552.592 344.729C552.592 344.729 571.136 304.565 533.832 297.699C533.832 297.699 523.957 278.223 504.177 283.107C484.393 287.99 472.012 287.853 463.14 279.121C463.14 279.121 458.053 288.687 464.23 297.05C445.504 311.567 452.009 330.176 459.671 340.221C462.741 319.404 517.634 342.576 524.809 322.567C525.525 341.687 545.588 336.93 552.592 344.729Z" fill="#0E1632"/>
<path fill-rule="evenodd" clip-rule="evenodd" d="M552.592 344.729C552.592 344.729 556.29 336.713 557.06 327.232C549.849 326.547 540.496 321.374 528.346 309.092C528.346 309.092 523.383 316.38 500.472 317.32C486.557 317.891 468.865 312.747 458.891 302.027C446.968 315.6 452.861 331.294 459.671 340.224C462.741 319.406 517.632 342.58 524.811 322.571C525.524 341.687 545.588 336.93 552.592 344.729Z" fill="#010518"/>
<path fill-rule="evenodd" clip-rule="evenodd" d="M13.4921 349.057C21.3357 319.68 48.7392 335.836 60.4678 360.987C72.1947 386.141 99.0665 484.247 122.3 509.649C131.305 519.496 128.55 520.323 120.272 515.528C78.98 491.615 2.69587 389.496 13.4921 349.057Z" fill="#05304B"/>
<path fill-rule="evenodd" clip-rule="evenodd" d="M127.846 517.297C128.13 518.619 126.886 518.68 124.532 517.706C61.9336 464.816 28.6911 346.582 28.5827 346.203C28.399 345.553 28.7751 344.877 29.4258 344.69C30.0765 344.505 30.7552 344.88 30.9406 345.53C31.049 345.913 64.7463 465.76 127.846 517.297Z" fill="#0076BD"/>
<path fill-rule="evenodd" clip-rule="evenodd" d="M82.86 364.722C96.5373 343.302 114.28 363.086 117.257 386.081C120.236 409.077 116.823 494.005 128.902 520.102C133.583 530.219 131.181 530.184 125.8 524.274C98.9599 494.802 64.0295 394.205 82.86 364.722Z" fill="#0076BD"/>
<path fill-rule="evenodd" clip-rule="evenodd" d="M131.386 527.597C131.277 528.722 130.272 528.455 128.645 527.085C92.161 469.155 95.5911 366.589 95.6034 366.261C95.6191 365.696 96.0914 365.251 96.6564 365.268C97.2214 365.286 97.6657 365.756 97.65 366.322C97.6395 366.65 94.162 470.618 131.386 527.597Z" fill="#05304B"/>
<path fill-rule="evenodd" clip-rule="evenodd" d="M15.0454 437.615C-8.59555 440.077 0.537155 463.165 18.528 475.27C36.5189 487.373 108.997 520.043 125.781 541.042C132.286 549.182 133.259 547.16 130.567 540.197C117.136 505.462 47.5846 434.225 15.0454 437.615Z" fill="#0076BD"/>
<path fill-rule="evenodd" clip-rule="evenodd" d="M131.009 546.25C131.994 546.629 132.193 545.679 131.728 543.746C98.5222 489.058 11.2808 449.028 11.0009 448.897C10.5199 448.677 9.95141 448.883 9.72926 449.363C9.5071 449.84 9.71349 450.41 10.1945 450.632C10.4744 450.761 98.907 491.34 131.009 546.25Z" fill="#05304B"/>
<path fill-rule="evenodd" clip-rule="evenodd" d="M352.66 408.104L358.528 459.632C358.528 459.632 349.656 580.309 345.292 631.373H279.419L277.973 425.987L352.66 408.104Z" fill="#0E1632"/>
<path fill-rule="evenodd" clip-rule="evenodd" d="M317.726 452.795L320.626 471.007L314.854 631.374H234.546C233.206 620.274 231.997 610.783 231.018 603.943C224.987 561.762 222.921 503.141 222.949 489.267C222.977 475.394 239.061 454.803 244.59 453.297C250.118 451.79 317.726 452.795 317.726 452.795Z" fill="#0E1632"/>
<path fill-rule="evenodd" clip-rule="evenodd" d="M344.589 205.198C344.589 205.198 347.33 200.1 349.497 201.055C351.663 202.01 424.378 308.9 426.841 318.099C429.302 327.296 428.291 343.598 414.217 366.225C400.144 388.85 370.031 444.385 368.97 445.582C367.908 446.781 351.451 435.637 349.698 432.521C349.698 432.521 348.978 431.497 350.031 429.418C351.085 427.335 386.883 342.625 389.15 336.545C391.416 330.464 327.639 255.052 324.597 249.022C321.551 242.989 309.83 211.349 344.589 205.198Z" fill="#171C3A"/>
<path fill-rule="evenodd" clip-rule="evenodd" d="M286.308 174.582L317.976 197.179C317.976 197.179 340.567 285.541 340.655 289.557C340.744 293.573 349.392 342.3 349.392 342.3C349.392 342.3 317.724 354.854 313.2 342.803C308.677 330.753 257.909 244.381 255.395 230.824C252.882 217.265 258.915 185.128 261.93 181.612C264.946 178.096 286.308 174.582 286.308 174.582Z" fill="#C9C4D1"/>
<path fill-rule="evenodd" clip-rule="evenodd" d="M318.179 189.467C318.179 189.467 346.859 199.55 349.495 201.054C352.135 202.561 367.624 258.951 368.88 264.223C370.138 269.495 361.843 366.157 361.843 374.695C361.843 383.233 372.65 489.937 372.902 491.695C373.152 493.453 372.146 495.461 369.634 495.461C367.122 495.461 338.974 442.486 336.712 436.458C334.45 430.433 341.772 339.549 341.772 339.549L322.636 209.486L318.179 189.467Z" fill="#171C3A"/>
<path fill-rule="evenodd" clip-rule="evenodd" d="M233.045 203.754C233.045 203.754 191.94 245.145 190.434 247.656C188.926 250.167 231.649 391.523 232.151 398.05C232.655 404.577 211.038 500.74 210.284 503.249C210.284 503.249 210.16 504.252 210.912 505.759C211.666 507.265 213.426 508.144 214.304 508.773C215.185 509.4 315.714 493.206 323.757 488.184C331.798 483.165 349.14 405.078 349.14 394.534C349.14 383.989 343.06 343.629 343.06 343.629L293.597 259.957C293.597 259.957 257.861 206.417 233.045 203.754Z" fill="#1C2344"/>
<path fill-rule="evenodd" clip-rule="evenodd" d="M239.556 197.25C239.556 197.25 191.938 245.147 190.432 247.658C188.924 250.17 231.648 391.525 232.15 398.052C232.653 404.579 211.036 500.742 210.282 503.251C210.282 503.251 210.158 504.254 210.91 505.761C211.664 507.267 213.424 508.146 214.304 508.775C214.757 509.098 241.497 504.981 268.492 500.221C245.075 466.505 246.297 410.644 248.34 407.247C250.714 403.289 263.226 394.749 261.327 394.115C259.425 393.482 246.6 393.166 245.65 390.001C244.7 386.836 226.657 286.738 226.657 286.738L214.61 278.624C214.61 278.624 209.226 239.706 213.027 234.01C216.814 228.338 241.895 206.779 242.099 206.603C238.98 205.075 242.451 197.561 239.556 197.25Z" fill="#101937"/>
<path fill-rule="evenodd" clip-rule="evenodd" d="M196.183 241.35C196.183 241.35 189.96 246.307 185.655 251.918C181.348 257.528 127.711 369.537 126.604 380.035C125.495 390.534 129.42 408.217 148.746 430.572C168.071 452.926 210.651 508.56 212.023 509.687C213.394 510.818 229.491 495.773 230.874 492.058C230.874 492.058 231.488 490.814 229.972 488.715C228.455 486.615 174.606 400.007 171.071 393.739C167.538 387.469 224.364 293.869 226.653 286.737C228.948 279.608 235.319 242.092 196.183 241.35Z" fill="#383D5D"/>
<path fill-rule="evenodd" clip-rule="evenodd" d="M256.224 135.25C255.934 150.902 259.997 167.074 258.97 182.751C258.76 185.95 257.228 187.011 253.278 189.575C247.808 197.706 262.768 223.42 272.606 224.951C273.256 225.052 289.281 212.498 300.632 209.585C306.457 208.091 311.253 215.521 311.691 215.205C314.052 213.493 308.976 200.191 310.63 195.144C308.633 194.609 306.856 190.155 305.439 188.855C296.243 180.381 299.243 159.231 306.777 151.241C312.402 145.274 256.224 135.25 256.224 135.25Z" fill="#ED9072"/>
<path fill-rule="evenodd" clip-rule="evenodd" d="M245.86 195.716C247.111 199.256 277.493 239.767 277.493 239.767C277.493 239.767 278.579 241.222 280.168 239.377C281.753 237.534 300.475 211.429 300.475 211.429L258.9 180.483L259.85 173.364C259.242 172.715 244.574 192.076 245.86 195.716Z" fill="white"/>
<path fill-rule="evenodd" clip-rule="evenodd" d="M301.571 182.545C301.559 182.524 301.615 182.484 301.73 182.475C315.941 181.474 318.093 221.698 315.596 229.583C315.579 229.635 306.961 216.417 301.018 211.161C298.33 208.784 306.742 190.608 301.571 182.545Z" fill="white"/>
<path fill-rule="evenodd" clip-rule="evenodd" d="M249.441 184.152C249.441 184.152 302.597 249.979 306.366 255.503C310.134 261.027 339.038 329.067 343.058 343.629C343.058 343.629 298.572 288.143 292.29 283.12C286.009 278.098 262.754 258.765 262.754 258.765C262.754 258.765 262.128 257.509 262.441 256.63C262.754 255.753 269.225 241.126 269.225 241.126C269.225 241.126 249.873 244.013 248.115 243.887C246.355 243.763 237.667 200.63 237.417 199.373C237.163 198.12 249.441 184.152 249.441 184.152Z" fill="#383D5D"/>
<path fill-rule="evenodd" clip-rule="evenodd" d="M301.456 182.447C301.456 182.447 315.516 185.701 317.778 186.958C320.038 188.212 337.884 217.839 338.386 220.351C338.386 220.351 338.638 221.544 337.632 222.046C336.626 222.547 332.919 224.87 332.542 225.247C332.165 225.623 338.764 226.376 338.764 226.376C338.764 226.376 339.516 226.659 339.388 227.819C339.264 228.981 341.771 339.551 341.771 339.551C341.771 339.551 319.833 217.287 316.587 209.24C313.342 201.193 304.608 188.462 304.608 188.462L301.456 182.447Z" fill="#383D5D"/>
<path fill-rule="evenodd" clip-rule="evenodd" d="M325.37 112.473C318.448 112.436 312.803 118.011 312.765 124.926C312.728 131.842 318.308 137.48 325.231 137.518C332.151 137.556 337.796 131.982 337.835 125.067C337.873 118.15 332.291 112.513 325.37 112.473Z" fill="#E8685B"/>
<path fill-rule="evenodd" clip-rule="evenodd" d="M241.713 111.994C234.791 111.956 229.148 117.53 229.109 124.445C229.073 131.36 234.651 136.999 241.574 137.038C248.496 137.076 254.141 131.502 254.178 124.585C254.216 117.672 248.636 112.033 241.713 111.994Z" fill="#E8685B"/>
<path fill-rule="evenodd" clip-rule="evenodd" d="M287.868 48.1042C264.255 47.961 244.826 68.8925 244.691 94.6192L244.474 137.129C244.345 162.856 263.557 184.02 287.17 184.165C310.783 184.306 330.211 163.378 330.344 137.653L330.561 95.1417C330.694 69.4133 311.482 48.2475 287.868 48.1042Z" fill="#F4AD85"/>
<path fill-rule="evenodd" clip-rule="evenodd" d="M246.364 81.9847C245.298 86.0057 244.718 90.2434 244.693 94.6226L244.476 137.132C244.357 160.788 260.59 180.586 281.565 183.731C283.624 183.946 284.946 184.077 285.232 184.107L285.253 184.109C261.804 181.79 256.84 151.018 256.84 141.739C256.84 132.454 256.84 140.412 256.84 117.642C256.84 94.8725 269.453 92.4959 278.084 92.4959C286.715 92.4959 315.369 92.4959 320.902 92.4959C326.435 92.4959 328.427 97.5811 328.427 97.5811L330.561 95.9612L330.565 95.1451C330.635 81.5216 325.279 69.179 316.72 60.5586C295.221 64.7543 259.472 71.8894 257.006 73.4289C255.664 74.2625 251.288 77.8484 246.364 81.9847Z" fill="#ED9072"/>
<path fill-rule="evenodd" clip-rule="evenodd" d="M336.415 82.3611L328.702 90.0955C328.702 90.0955 325.006 75.7153 293.908 80.1505C262.808 84.5856 322.583 51.2783 329.353 54.9148C336.122 58.5514 342.021 69.2461 336.415 82.3611Z" fill="#01020E"/>
<path fill-rule="evenodd" clip-rule="evenodd" d="M255.631 83.0581C255.631 83.0581 286.236 86.4098 301.811 76.5312C317.386 66.6508 330.57 62.0706 334.565 67.4372C338.352 72.5294 323.122 86.2787 329.249 109.664C329.582 110.932 330.383 132.561 330.85 133.888C330.999 125.424 333.714 103.801 336.519 98.3889C344.896 82.2333 358 70.0899 340.982 45.8643C330.533 30.9966 312.791 24.0293 304.548 31.5523C277.687 56.0645 240.71 24.2163 240.483 64.8352C240.483 64.8352 220.561 71.5351 239.075 112.257C243.266 112.282 244.562 115.45 244.546 118.129L244.382 139.869C259.341 139.873 259.646 100.692 255.631 83.0581Z" fill="#0E1632"/>
<path fill-rule="evenodd" clip-rule="evenodd" d="M268.814 615.206H182.209C178.024 615.206 174.597 611.784 174.597 607.599V458.857C174.597 454.673 178.024 451.25 182.209 451.25H268.814C273.002 451.25 276.427 454.673 276.427 458.857V607.599C276.425 611.782 273 615.206 268.814 615.206Z" fill="#E2E1E7"/>
<path fill-rule="evenodd" clip-rule="evenodd" d="M180.301 615.208H110.246C106.723 615.208 103.84 612.33 103.84 608.809V457.653C103.84 454.134 106.723 451.254 110.246 451.254H180.301C183.824 451.254 186.707 454.137 186.707 457.653V608.809C186.707 612.326 183.825 615.208 180.301 615.208Z" fill="white"/>
<path fill-rule="evenodd" clip-rule="evenodd" d="M293.756 513.518H204.038C204.038 497.457 186.708 495.682 186.708 495.682H276.427C276.427 495.682 293.756 497.457 293.756 513.518Z" fill="white"/>
<path fill-rule="evenodd" clip-rule="evenodd" d="M276.425 588.818H183.576C180.819 588.818 178.564 591.073 178.564 593.825V626.365C178.564 629.117 180.819 631.372 183.576 631.372H276.425C279.182 631.372 281.437 629.119 281.437 626.365V593.825C281.438 591.071 279.184 588.818 276.425 588.818Z" fill="#B92F6D"/>
<path fill-rule="evenodd" clip-rule="evenodd" d="M186.497 588.818H166.139H166.136H166.125H166.104C165.644 588.824 160.676 589.011 157.893 595.076C154.968 601.439 155.282 607.8 146.618 607.8C138.412 607.8 150.258 607.8 142.887 607.8C134.221 607.8 134.466 601.289 131.611 595.076C128.756 588.862 123.857 588.824 123.398 588.818H123.379H123.367H123.363H104.05C101.293 588.818 99.0384 591.073 99.0384 593.825V626.365C99.0384 629.117 101.295 631.372 104.05 631.372H186.497C189.254 631.372 191.508 629.119 191.508 626.365V593.825C191.508 591.071 189.254 588.818 186.497 588.818Z" fill="#E74D91"/>
<path fill-rule="evenodd" clip-rule="evenodd" d="M293.756 569.688H204.038C204.038 553.627 186.708 551.854 186.708 551.854H276.427C276.427 551.854 293.756 553.625 293.756 569.688Z" fill="white"/>
<path fill-rule="evenodd" clip-rule="evenodd" d="M89.2531 542.909H170.848C170.848 526.848 186.707 525.074 186.707 525.074H105.113C105.113 525.074 89.2531 526.846 89.2531 542.909Z" fill="#ACABBB"/>
<path fill-rule="evenodd" clip-rule="evenodd" d="M173.724 469.062H111.184C109.667 469.062 108.427 470.301 108.427 471.817C108.427 473.332 109.667 474.571 111.184 474.571H173.724C175.239 474.571 176.479 473.332 176.479 471.817C176.479 470.301 175.239 469.062 173.724 469.062Z" fill="#E2E1E7"/>
<path fill-rule="evenodd" clip-rule="evenodd" d="M173.724 499.412H111.184C109.667 499.412 108.427 500.651 108.427 502.166C108.427 503.68 109.667 504.92 111.184 504.92H173.724C175.239 504.92 176.479 503.681 176.479 502.166C176.479 500.651 175.239 499.412 173.724 499.412Z" fill="#E2E1E7"/>
<path fill-rule="evenodd" clip-rule="evenodd" d="M173.724 562.785H111.184C109.667 562.785 108.427 564.024 108.427 565.539C108.427 567.054 109.667 568.293 111.184 568.293H173.724C175.239 568.293 176.479 567.054 176.479 565.539C176.479 564.024 175.239 562.785 173.724 562.785Z" fill="#E2E1E7"/>
<path fill-rule="evenodd" clip-rule="evenodd" d="M263.168 466.83H202.754C201.238 466.83 199.997 468.069 199.997 469.584C199.997 471.099 201.238 472.338 202.754 472.338H263.168C264.682 472.338 265.924 471.099 265.924 469.584C265.924 468.069 264.686 466.83 263.168 466.83Z" fill="#ACABBB"/>
<path fill-rule="evenodd" clip-rule="evenodd" d="M263.168 535.186H202.754C201.238 535.186 199.997 536.425 199.997 537.94V537.941C199.997 539.455 201.238 540.694 202.754 540.694H263.168C264.682 540.694 265.924 539.455 265.924 537.941V537.94C265.924 536.425 264.686 535.186 263.168 535.186Z" fill="#ACABBB"/>
<path fill-rule="evenodd" clip-rule="evenodd" d="M263.168 578.924H202.754C201.238 578.924 199.997 580.163 199.997 581.678C199.997 583.193 201.238 584.432 202.754 584.432H263.168C264.682 584.432 265.924 583.193 265.924 581.678C265.924 580.163 264.686 578.924 263.168 578.924Z" fill="#ACABBB"/>
<path fill-rule="evenodd" clip-rule="evenodd" d="M313.192 621.587H260.781C258.247 621.587 256.174 619.517 256.174 616.984V526.968C256.174 524.438 258.247 522.365 260.781 522.365H313.192C315.725 522.365 317.799 524.438 317.799 526.968V616.984C317.799 619.517 315.725 621.587 313.192 621.587Z" fill="#E2E1E7"/>
<path fill-rule="evenodd" clip-rule="evenodd" d="M259.627 621.589H217.23C215.098 621.589 213.356 619.846 213.356 617.716V526.242C213.356 524.113 215.1 522.369 217.23 522.369H259.627C261.759 522.369 263.503 524.113 263.503 526.242V617.718C263.503 619.846 261.759 621.589 259.627 621.589Z" fill="white"/>
<path fill-rule="evenodd" clip-rule="evenodd" d="M328.286 560.046H273.992C273.992 550.329 263.503 549.254 263.503 549.254H317.799C317.799 549.254 328.286 550.329 328.286 560.046Z" fill="white"/>
<path fill-rule="evenodd" clip-rule="evenodd" d="M317.8 605.621H261.609C259.94 605.621 258.576 606.982 258.576 608.65V628.342C258.576 630.007 259.94 631.372 261.609 631.372H317.8C319.467 631.372 320.831 630.009 320.831 628.342V608.65C320.831 606.984 319.467 605.621 317.8 605.621Z" fill="#B92F6D"/>
<path fill-rule="evenodd" clip-rule="evenodd" d="M263.375 605.621H251.055H251.054H251.047H251.034C250.758 605.623 247.749 605.736 246.063 609.408C244.295 613.258 244.484 617.107 239.241 617.107C234.275 617.107 241.443 617.107 236.983 617.107C231.74 617.107 231.886 613.167 230.159 609.408C228.434 605.647 225.466 605.623 225.19 605.621H225.177H225.17H213.478C211.811 605.621 210.447 606.982 210.447 608.65V628.342C210.447 630.007 211.811 631.372 213.478 631.372H263.374C265.041 631.372 266.407 630.009 266.407 628.342V608.65C266.41 606.984 265.044 605.621 263.375 605.621Z" fill="#E74D91"/>
<path fill-rule="evenodd" clip-rule="evenodd" d="M328.286 594.045H273.992C273.992 584.323 263.503 583.252 263.503 583.252H317.799C317.799 583.252 328.286 584.323 328.286 594.045Z" fill="white"/>
<path fill-rule="evenodd" clip-rule="evenodd" d="M204.528 577.836H253.905C253.905 568.114 263.501 567.043 263.501 567.043H214.122C214.122 567.043 204.528 568.114 204.528 577.836Z" fill="#ACABBB"/>
<path fill-rule="evenodd" clip-rule="evenodd" d="M255.644 533.146H217.797C216.879 533.146 216.129 533.898 216.129 534.814C216.129 535.729 216.879 536.481 217.797 536.481H255.644C256.56 536.481 257.312 535.729 257.312 534.814C257.314 533.898 256.562 533.146 255.644 533.146Z" fill="#E2E1E7"/>
<path fill-rule="evenodd" clip-rule="evenodd" d="M255.644 551.514H217.797C216.879 551.514 216.129 552.263 216.129 553.179C216.129 554.095 216.879 554.846 217.797 554.846H255.644C256.56 554.846 257.312 554.096 257.312 553.179C257.314 552.26 256.562 551.514 255.644 551.514Z" fill="#E2E1E7"/>
<path fill-rule="evenodd" clip-rule="evenodd" d="M255.644 589.865H217.797C216.879 589.865 216.129 590.617 216.129 591.532C216.129 592.448 216.879 593.199 217.797 593.199H255.644C256.56 593.199 257.312 592.448 257.312 591.532C257.314 590.615 256.562 589.865 255.644 589.865Z" fill="#E2E1E7"/>
<path fill-rule="evenodd" clip-rule="evenodd" d="M309.774 531.793H273.215C272.298 531.793 271.548 532.544 271.548 533.46V533.462C271.548 534.376 272.298 535.127 273.215 535.127H309.774C310.692 535.127 311.443 534.378 311.443 533.462V533.46C311.443 532.544 310.692 531.793 309.774 531.793Z" fill="#ACABBB"/>
<path fill-rule="evenodd" clip-rule="evenodd" d="M309.774 573.162H273.215C272.298 573.162 271.548 573.914 271.548 574.827V574.829C271.548 575.745 272.298 576.496 273.215 576.496H309.774C310.692 576.496 311.443 575.745 311.443 574.829V574.827C311.443 573.914 310.692 573.162 309.774 573.162Z" fill="#ACABBB"/>
<path fill-rule="evenodd" clip-rule="evenodd" d="M309.774 599.631H273.215C272.298 599.631 271.548 600.382 271.548 601.298C271.548 602.214 272.298 602.965 273.215 602.965H309.774C310.692 602.965 311.443 602.214 311.443 601.298C311.443 600.381 310.692 599.631 309.774 599.631Z" fill="#ACABBB"/>
<path fill-rule="evenodd" clip-rule="evenodd" d="M963.771 641.203H830.735C824.105 641.203 818.679 635.782 818.679 629.159V629.157C818.679 622.534 824.105 617.113 830.735 617.113H963.771C970.402 617.113 975.827 622.534 975.827 629.157V629.159C975.827 635.782 970.402 641.203 963.771 641.203Z" fill="#0E1632"/>
<path fill-rule="evenodd" clip-rule="evenodd" d="M844.618 411.992H809.555C799.383 411.992 791.06 403.677 791.06 393.516H863.115C863.113 403.677 854.79 411.992 844.618 411.992Z" fill="white"/>
<path fill-rule="evenodd" clip-rule="evenodd" d="M843.955 408.303H822.888C816.776 408.303 811.775 403.307 811.775 397.201H855.068C855.068 403.307 850.067 408.303 843.955 408.303Z" fill="#DFF0F2"/>
<path fill-rule="evenodd" clip-rule="evenodd" d="M856.41 385.037H797.762C789.981 385.037 783.616 391.396 783.616 399.169H870.556C870.556 391.396 864.192 385.037 856.41 385.037Z" fill="#383D5D"/>
<path fill-rule="evenodd" clip-rule="evenodd" d="M856.41 385.037H829.593C821.812 385.037 815.447 391.396 815.447 399.169H870.556C870.556 391.396 864.192 385.037 856.41 385.037Z" fill="#01020E"/>
<path fill-rule="evenodd" clip-rule="evenodd" d="M148.531 122.165C148.944 122.745 149.752 122.881 150.335 122.467C150.917 122.055 151.052 121.248 150.639 120.666C145.574 113.592 138.863 107.771 131.069 103.766C123.556 99.9035 115.037 97.7227 106.016 97.7227C90.8766 97.7227 77.1679 103.855 67.2445 113.766C57.3229 123.678 51.1847 137.373 51.1847 152.5C51.1847 167.626 57.3229 181.32 67.2445 191.233C77.1679 201.145 90.8766 207.277 106.016 207.277C118.735 207.277 130.45 202.945 139.756 195.675C149.261 188.252 156.253 177.765 159.242 165.702C159.412 165.01 158.987 164.309 158.294 164.138C157.601 163.969 156.9 164.392 156.727 165.085C153.881 176.579 147.218 186.569 138.166 193.641C129.306 200.561 118.145 204.685 106.016 204.685C91.5921 204.685 78.5323 198.845 69.0812 189.4C59.6283 179.958 53.7806 166.91 53.7806 152.5C53.7806 138.088 59.6283 125.043 69.0812 115.6C78.5323 106.156 91.5921 100.314 106.016 100.314C114.619 100.314 122.736 102.39 129.885 106.065C137.314 109.882 143.707 115.428 148.531 122.165Z" fill="#0E1632"/>
<path fill-rule="evenodd" clip-rule="evenodd" d="M80.8255 128.444C82.2774 129.702 86.2097 133.74 88.6901 142.3C86.5386 143.733 80.6069 148.264 83.3899 153.077L94.9629 173.091C97.7757 177.77 104.592 174.938 106.898 173.802C113.088 180.24 114.617 185.666 114.976 187.534C110.981 189.62 107.365 190.137 104.356 189.774C100.079 189.26 97.048 187.008 95.9057 185.03L73.4298 146.142C72.3085 144.147 71.8957 140.428 73.5732 136.501C74.7644 133.723 77.0174 130.857 80.8255 128.444ZM91.0655 142.509C87.9781 131.093 82.2022 126.651 81.6039 126.216C81.2523 125.936 80.7503 125.885 80.3375 126.128C75.674 128.895 72.9453 132.306 71.5214 135.635C69.543 140.259 70.1027 144.765 71.4899 147.238L93.9746 186.146C95.3967 188.603 99.0491 191.385 104.092 191.992C107.676 192.423 111.985 191.773 116.699 189.14C117.089 188.94 117.341 188.521 117.304 188.058C117.304 188.037 116.711 180.502 107.939 171.686C107.592 171.303 107.015 171.2 106.553 171.469C106.531 171.479 99.1261 175.752 96.8538 171.929L85.3158 151.96C83.1643 148.239 89.9058 144.136 90.5005 143.783C90.9571 143.551 91.2037 143.023 91.0655 142.509Z" fill="#0E1632"/>
<path d="M149.068 142.018V140.45L143.181 134.005C142.49 133.25 141.921 132.594 141.474 132.037C141.027 131.473 140.696 130.945 140.481 130.452C140.26 129.952 140.15 129.43 140.15 128.884C140.15 128.257 140.301 127.714 140.603 127.255C140.899 126.797 141.305 126.442 141.822 126.193C142.339 125.943 142.919 125.818 143.564 125.818C144.249 125.818 144.847 125.96 145.358 126.245C145.863 126.524 146.255 126.916 146.534 127.421C146.807 127.926 146.943 128.518 146.943 129.197H148.998C148.998 128.152 148.758 127.235 148.276 126.445C147.794 125.656 147.138 125.04 146.307 124.599C145.471 124.158 144.534 123.937 143.494 123.937C142.449 123.937 141.523 124.158 140.716 124.599C139.909 125.04 139.276 125.635 138.817 126.384C138.359 127.133 138.129 127.967 138.129 128.884C138.129 129.54 138.248 130.182 138.486 130.809C138.719 131.43 139.125 132.124 139.706 132.89C140.28 133.651 141.079 134.58 142.101 135.677L146.107 139.962V140.102H137.816V142.018H149.068ZM135.02 138.36V136.583L127.182 124.181H125.893V126.933H126.764L132.686 136.304V136.444H122.13V138.36H135.02ZM126.624 142.018V137.82V136.992V124.181H124.569V142.018H126.624Z" fill="#0E1632"/>
<path fill-rule="evenodd" clip-rule="evenodd" d="M453.465 62.2949H378.77C372.368 62.2949 367.131 67.5287 367.131 73.9228V104.848V108.396V138.921C367.131 139.458 367.437 139.914 367.932 140.12C368.427 140.326 368.969 140.218 369.349 139.838L389.185 120.024H453.466C459.867 120.024 465.104 114.79 465.104 108.396V73.9228C465.104 67.5269 459.867 62.2949 453.465 62.2949Z" fill="#BFCCE8"/>
<path fill-rule="evenodd" clip-rule="evenodd" d="M462.291 54.7344H387.595C383.971 54.7344 380.675 56.2145 378.288 58.5998C375.902 60.9852 374.418 64.2775 374.418 67.8983V132.895C374.418 133.468 374.59 134.01 374.898 134.471C375.202 134.929 375.638 135.292 376.169 135.513H376.175C376.712 135.733 377.273 135.787 377.805 135.68C378.349 135.572 378.854 135.31 379.264 134.901L398.647 115.535H462.293C465.917 115.535 469.211 114.053 471.601 111.67C473.987 109.284 475.468 105.992 475.468 102.369V67.9C475.468 64.2775 473.987 60.9852 471.601 58.6016C469.209 56.2163 465.917 54.7344 462.291 54.7344ZM387.595 57.8082H462.291C465.066 57.8082 467.591 58.9441 469.423 60.7737C471.254 62.6034 472.391 65.1268 472.391 67.9V102.371C472.391 105.145 471.254 107.668 469.423 109.498C467.591 111.327 465.066 112.463 462.291 112.463H397.372L377.495 132.323V67.9C377.495 65.1268 378.631 62.6034 380.462 60.7737C382.295 58.9441 384.819 57.8082 387.595 57.8082Z" fill="white"/>
<path fill-rule="evenodd" clip-rule="evenodd" d="M462.912 67.5874C463.378 67.5874 463.754 67.2116 463.754 66.7468C463.754 66.2837 463.376 65.9062 462.912 65.9062H386.976C386.511 65.9062 386.133 66.2837 386.133 66.7468C386.133 67.2116 386.511 67.5874 386.976 67.5874H462.912Z" fill="white"/>
<path fill-rule="evenodd" clip-rule="evenodd" d="M462.912 75.7868C463.378 75.7868 463.754 75.4093 463.754 74.9462C463.754 74.4831 463.376 74.1074 462.912 74.1074H454.868C454.402 74.1074 454.028 74.4831 454.028 74.9462C454.028 75.4111 454.404 75.7868 454.868 75.7868H462.912ZM444.159 75.7868C444.624 75.7868 445 75.4093 445 74.9462C445 74.4831 444.624 74.1074 444.159 74.1074H386.976C386.511 74.1074 386.133 74.4831 386.133 74.9462C386.133 75.4111 386.511 75.7868 386.976 75.7868H444.159Z" fill="white"/>
<path fill-rule="evenodd" clip-rule="evenodd" d="M462.912 83.984C463.378 83.984 463.754 83.6083 463.754 83.1435C463.754 82.6804 463.376 82.3047 462.912 82.3047H386.976C386.511 82.3047 386.133 82.6804 386.133 83.1435C386.133 83.6083 386.511 83.984 386.976 83.984H462.912Z" fill="white"/>
<path fill-rule="evenodd" clip-rule="evenodd" d="M441.794 95.0973C442.259 95.0973 442.635 94.7199 442.635 94.2568C442.635 93.7937 442.257 93.418 441.794 93.418H386.976C386.511 93.418 386.133 93.7937 386.133 94.2568C386.133 94.7216 386.511 95.0973 386.976 95.0973H441.794Z" fill="white"/>
<path fill-rule="evenodd" clip-rule="evenodd" d="M417.315 103.992C417.778 103.992 418.154 103.614 418.154 103.151C418.154 102.688 417.776 102.312 417.315 102.312H386.974C386.509 102.312 386.131 102.688 386.131 103.151C386.131 103.616 386.509 103.992 386.974 103.992H417.315Z" fill="white"/>
<path fill-rule="evenodd" clip-rule="evenodd" d="M434.701 103.992C435.166 103.992 435.542 103.614 435.542 103.151C435.542 102.688 435.164 102.312 434.701 102.312H423.854C423.388 102.312 423.012 102.688 423.012 103.151C423.012 103.616 423.39 103.992 423.854 103.992H434.701Z" fill="white"/>
<path fill-rule="evenodd" clip-rule="evenodd" d="M22.2871 640.07C22.2871 639.012 23.146 638.154 24.206 638.154C25.2661 638.154 26.1232 639.011 26.1232 640.07V644.573H30.6292C31.6892 644.573 32.5498 645.431 32.5498 646.49C32.5498 647.545 31.691 648.403 30.6292 648.403H26.1232V652.908C26.1232 653.964 25.2661 654.824 24.206 654.824C23.1477 654.824 22.2871 653.966 22.2871 652.908V648.403H17.7793C16.7193 648.403 15.8621 647.547 15.8621 646.49C15.8621 645.433 16.7193 644.573 17.7793 644.573H22.2871V640.07Z" fill="#BFCCE8"/>
<path fill-rule="evenodd" clip-rule="evenodd" d="M770.749 609.76H835.7C838.371 609.76 840.799 610.85 842.557 612.608C844.315 614.366 845.407 616.79 845.407 619.458C845.407 622.127 844.315 624.554 842.557 626.309C840.798 628.067 838.37 629.157 835.7 629.157H770.749C768.078 629.157 765.65 628.067 763.892 626.309C762.133 624.554 761.041 622.127 761.041 619.458C761.041 616.792 762.134 614.366 763.892 612.608C765.65 610.85 768.078 609.76 770.749 609.76Z" fill="#0076BD"/>
<path fill-rule="evenodd" clip-rule="evenodd" d="M773.741 619.458C773.741 616.792 774.832 614.366 776.592 612.608C778.35 610.85 780.78 609.76 783.449 609.76H775.006C772.335 609.76 769.907 610.85 768.149 612.608C766.389 614.366 765.297 616.79 765.297 619.458C765.297 622.127 766.389 624.554 768.149 626.309C769.907 628.067 772.335 629.157 775.006 629.157H783.449C780.78 629.157 778.35 628.067 776.592 626.309C774.832 624.554 773.741 622.129 773.741 619.458Z" fill="#004A82"/>
<path fill-rule="evenodd" clip-rule="evenodd" d="M785.975 619.458C785.975 616.792 787.066 614.366 788.826 612.608C790.584 610.85 793.012 609.76 795.683 609.76H787.238C784.567 609.76 782.139 610.85 780.379 612.608C778.621 614.366 777.528 616.79 777.528 619.458C777.528 622.127 778.619 624.554 780.379 626.309C782.137 628.067 784.567 629.157 787.238 629.157H795.683C793.012 629.157 790.584 628.067 788.826 626.309C787.068 624.554 785.975 622.129 785.975 619.458Z" fill="#004A82"/>
<path fill-rule="evenodd" clip-rule="evenodd" d="M771.738 593.768H844.471C848.601 593.768 851.982 597.144 851.982 601.271C851.982 605.399 848.601 608.775 844.471 608.775H771.738V593.768Z" fill="white"/>
<path fill-rule="evenodd" clip-rule="evenodd" d="M771.738 592.777C771.191 592.777 770.748 593.221 770.748 593.766C770.748 594.311 771.191 594.755 771.738 594.755H844.471C846.263 594.755 847.895 595.487 849.075 596.669C850.258 597.85 850.993 599.479 850.993 601.27C850.993 603.059 850.258 604.69 849.075 605.871C847.895 607.051 846.263 607.784 844.471 607.784H771.738C771.191 607.784 770.748 608.228 770.748 608.774C770.748 609.319 771.191 609.761 771.738 609.761H844.471C846.81 609.761 848.935 608.807 850.476 607.267C852.016 605.728 852.973 603.604 852.973 601.268C852.973 598.932 852.016 596.807 850.476 595.269C848.937 593.729 846.81 592.773 844.471 592.773H771.738V592.777Z" fill="#B92F6D"/>
<path fill-rule="evenodd" clip-rule="evenodd" d="M385.398 631.377H664.739C669.619 631.377 673.849 627.389 674.141 622.514V622.512C674.435 617.638 670.681 613.652 665.801 613.652H386.462C381.583 613.652 377.352 617.638 377.06 622.512V622.514C376.768 627.389 380.52 631.377 385.398 631.377Z" fill="#A8A6B5"/>
<path fill-rule="evenodd" clip-rule="evenodd" d="M385.398 631.376H664.737C667.898 631.376 670.786 629.702 672.509 627.196C671.087 624.692 668.398 623.018 665.237 623.018H385.9C382.739 623.018 379.851 624.692 378.128 627.196C379.55 629.702 382.239 631.376 385.398 631.376Z" fill="#96929F"/>
<path fill-rule="evenodd" clip-rule="evenodd" d="M379.564 613.65H602.989C609.372 613.65 614.265 608.432 613.86 602.054L604.714 457.479C604.311 451.103 598.758 445.885 592.375 445.885H368.95C362.565 445.885 357.673 451.101 358.077 457.479L367.222 602.054C367.628 608.432 373.18 613.65 379.564 613.65Z" fill="#96929F"/>
<path fill-rule="evenodd" clip-rule="evenodd" d="M379.563 613.65H596.398C602.783 613.65 607.674 608.432 607.27 602.054L598.125 457.479C597.722 451.103 592.169 445.885 585.786 445.885H368.95C362.567 445.885 357.676 451.101 358.079 457.479L367.224 602.054C367.628 608.432 373.18 613.65 379.563 613.65Z" fill="white"/>
<path fill-rule="evenodd" clip-rule="evenodd" d="M391.379 613.65H413.692L598.662 465.957L598.125 457.478C597.964 454.946 596.991 452.595 595.476 450.683L391.379 613.65ZM570.424 445.885L368.649 606.994C367.843 605.493 367.336 603.819 367.226 602.054L365.803 579.572L533.237 445.885H570.424Z" fill="#F0EEF0"/>
<path fill-rule="evenodd" clip-rule="evenodd" d="M613.973 631.377H664.739C669.619 631.377 673.849 627.389 674.141 622.514V622.512C674.435 617.638 670.681 613.652 665.801 613.652H615.034C610.154 613.652 605.924 617.638 605.632 622.512V622.514C605.34 627.389 609.092 631.377 613.973 631.377Z" fill="white"/>
<path fill-rule="evenodd" clip-rule="evenodd" d="M381.76 618.082H614.205C616.645 618.082 618.76 616.088 618.905 613.652C619.05 611.213 617.175 609.219 614.735 609.219H382.29C379.849 609.219 377.735 611.213 377.588 613.65C377.444 616.088 379.321 618.082 381.76 618.082Z" fill="#D2CED6"/>
<path fill-rule="evenodd" clip-rule="evenodd" d="M646.296 434.51C648.01 425.991 647.581 421.221 645.94 413.137L682.571 410.047L631.588 387.726C631.588 387.726 620.769 374.463 615.668 361.437C610.567 348.409 624.399 315.284 629.597 307.063C634.796 298.845 645.594 300.075 652.705 304.521C652.705 304.521 663.384 288.444 676.132 287.369C688.882 286.294 729.402 290.025 741.172 319.735C752.943 349.44 734.006 379.136 752.962 409.696C752.962 409.696 754.633 413.561 752.172 416.817C749.71 420.074 719.821 454.872 651.702 440.852C651.702 440.852 646.273 439.592 646.296 434.507V434.51Z" fill="#0E1632"/>
<path fill-rule="evenodd" clip-rule="evenodd" d="M694.301 443.616C690.549 402.695 687.904 367.127 687.904 367.127L691.38 355.595C691.38 355.595 722.747 380.921 745.019 354.275C743.962 372.556 741.345 390.962 752.964 409.694C752.964 409.694 754.634 413.559 752.173 416.815L752.073 416.946L752.037 416.99L751.949 417.1L751.86 417.212L751.804 417.281L751.643 417.474L751.634 417.484L751.44 417.713L751.386 417.778L751.225 417.961L751.089 418.119L750.984 418.234L750.747 418.496L750.718 418.526L750.431 418.838L750.366 418.908L750.116 419.172L749.941 419.356L749.778 419.524L749.661 419.642L749.416 419.892L749.031 420.28L748.766 420.539L748.563 420.738C742.045 427.036 726.865 438.687 701.284 442.73L701.211 442.741C698.993 443.09 696.696 443.382 694.321 443.609L694.301 443.616Z" fill="#010518"/>
<path fill-rule="evenodd" clip-rule="evenodd" d="M646.296 434.511C648.624 422.935 646.995 418.282 643.749 402.816L702.04 393.652L727.513 398.584C727.513 398.584 729.738 412.842 736.397 430.093C720.888 439.683 693.492 449.454 651.706 440.852C651.706 440.852 646.276 439.592 646.299 434.507L646.296 434.511Z" fill="#010518"/>
<path fill-rule="evenodd" clip-rule="evenodd" d="M723.631 437.026C707.501 442.082 685.451 448.125 666.44 457.462C665.126 458.108 667.803 463.164 666.583 463.838C664.726 464.866 661.635 467.26 658.241 470.613C649.36 479.386 631.291 548.045 632.903 554.885C635.499 565.889 658.329 596.119 658.329 596.119C662.863 604.867 668.485 617.608 674.004 631.376H787.394C779.496 605.728 776.556 588.354 776.348 572.695C770.294 519.461 798.941 507.88 798.941 507.88L769.269 438.122C757.724 434.038 734.702 435.574 734.702 435.574C728.616 435.569 729.08 435.317 723.631 437.026Z" fill="#E74D91"/>
<path fill-rule="evenodd" clip-rule="evenodd" d="M674 631.375H690.003C687.021 623.401 673.148 585.696 670.181 577.648C683.668 575.303 702.234 572.088 705.507 571.31C708.781 570.531 721.316 577.687 721.316 577.687L719.924 569.549L733.381 583.088L710.37 540.161C710.37 540.161 672.821 548.633 664.842 550.085C656.866 551.536 661.73 550.431 660.247 550.314C655.811 537.846 663.076 534.358 662.213 528.324C661.351 522.289 661.095 463.766 661.095 463.766C656.241 466.279 654.051 471.738 651.305 480.349C649.5 486.017 639.91 523.264 635.943 545.295C634.999 550.536 634.252 554.457 633.779 557.585C642.678 580.243 662.651 603.059 674 631.375Z" fill="#B92F6D"/>
<path fill-rule="evenodd" clip-rule="evenodd" d="M695.629 372.719L701.305 389.757C701.305 389.757 709.892 429.963 711.878 435.178C712.569 436.987 714.837 437.541 718.331 437.457C713.307 444.644 703.55 455.61 689.445 458.28C680.439 459.985 674.141 458.306 669.866 455.786C672.877 454.198 675.758 452.31 675.745 450.76C675.623 437.039 673.263 412.889 665.819 408.424C657.293 403.309 695.629 372.719 695.629 372.719Z" fill="#E8685B"/>
<path fill-rule="evenodd" clip-rule="evenodd" d="M715.504 437.342C717.526 437.609 720.283 437.419 723.629 437.025C720.16 442.021 714.559 447.634 705.577 453.321C683.337 467.399 672.628 459.727 669.24 456.11C671.321 455.046 673.431 453.815 674.661 452.634C695.415 462.766 715.5 437.342 715.5 437.342H715.504Z" fill="white"/>
<path fill-rule="evenodd" clip-rule="evenodd" d="M667.339 457.026C667.339 457.026 658.47 546.192 659.546 553.724C660.624 561.257 674.722 598.36 687.083 631.376H665.831C661.633 623.295 658.425 616.987 657.842 615.467C657.464 614.483 655.995 611.633 653.976 607.896C650.343 601.177 644.919 591.603 640.831 584.898C627.803 563.527 627.836 568.518 632.345 543.487C636.314 521.458 648.494 480.692 650.301 475.025C653.048 466.408 665.039 456.399 667.339 457.026Z" fill="#1C2344"/>
<path fill-rule="evenodd" clip-rule="evenodd" d="M668.586 581.133C671.507 589.29 674.904 598.58 678.429 608.116C671.967 608.673 666.807 609.32 664.979 610.038C658.517 612.574 657.842 615.468 657.842 615.468C657.464 614.484 655.995 611.633 653.976 607.897C650.343 601.178 644.92 591.604 640.831 584.898C636.912 578.469 634.177 574.429 632.387 571.238C634.896 573.437 638.893 576.755 640.839 577.344C643.194 578.055 661.305 580.262 668.586 581.133Z" fill="#0E1632"/>
<path fill-rule="evenodd" clip-rule="evenodd" d="M726.97 435.127C726.97 435.127 710.697 513.883 708.467 536.777C706.236 559.669 713.405 576.056 721.467 593.256C724.185 599.053 732.9 613.851 743.631 631.375H793.737L788.377 507.66L802.745 504.335C801.891 498.119 801.194 492.972 800.716 489.367L772.426 439.399C772.426 439.399 761.762 430.756 726.97 435.127Z" fill="#1C2344"/>
<path fill-rule="evenodd" clip-rule="evenodd" d="M757.431 473.035C765.423 505.105 759.875 518.407 759.875 518.407L755.593 498.451C755.593 498.451 751.542 527.908 747.037 531.664C744.8 533.528 718.166 538.631 708.185 540.49C707.496 552.987 709.637 563.55 713.092 573.487C720.255 574.222 763.352 568.157 765.411 582.067C766.438 589.004 766.207 566.684 766.207 566.684L768.757 631.376H793.737L788.377 507.662L802.745 504.336L802.705 504.045L802.665 503.758L802.626 503.47L802.588 503.183L802.547 502.9L802.509 502.617L802.47 502.337L802.432 502.058L802.394 501.78L802.357 501.505L802.32 501.231L802.283 500.958L802.247 500.688L802.21 500.42V500.418L802.173 500.153L802.138 499.887L802.101 499.625L802.066 499.363L802.03 499.103L801.995 498.846L801.96 498.589L801.926 498.332L801.891 498.079V498.077L801.857 497.825L801.823 497.575L801.788 497.327L801.755 497.081V497.079L801.722 496.834L801.689 496.591L801.655 496.352L801.624 496.113V496.111L801.591 495.875L801.559 495.641L801.528 495.407L801.496 495.176L801.465 494.947L801.433 494.72V494.718L801.402 494.494L801.372 494.271L801.342 494.049L801.312 493.83L801.283 493.614L801.253 493.399V493.397L801.223 493.186L801.195 492.976V492.974L801.167 492.766L801.139 492.56L801.111 492.354L801.085 492.153L801.057 491.952L801.031 491.754L801.005 491.559L800.978 491.365V491.363L800.952 491.172L800.928 490.984V490.982L800.901 490.795L800.877 490.61L800.852 490.428L800.828 490.246L800.805 490.066L800.781 489.888V489.886L800.758 489.713V489.712L800.735 489.54V489.539L800.713 489.369L785.393 462.312L757.431 473.035Z" fill="#0E1632"/>
<path fill-rule="evenodd" clip-rule="evenodd" d="M797.053 474.345C806.228 499.387 808.723 585.268 801.164 631.372H760.914C777.376 539.852 742.801 474.389 750.398 451.198C762.558 414.07 791.022 457.887 797.053 474.345Z" fill="#383D5D"/>
<path fill-rule="evenodd" clip-rule="evenodd" d="M636.073 389.69L631.586 387.726C631.586 387.726 623.998 378.422 618.533 367.745C619.6 369.775 626.669 382.123 637.018 374.576C648.269 366.368 648.722 379.366 648.722 379.366C648.722 379.366 641.915 387.089 637.964 388.895C637.453 389.131 636.809 389.4 636.073 389.69Z" fill="#010518"/>
<path fill-rule="evenodd" clip-rule="evenodd" d="M640.845 382.229C647.89 381.502 654.197 386.619 654.926 393.659C655.655 400.7 650.534 407 643.488 407.728C636.438 408.457 630.132 403.341 629.403 396.3C628.673 389.261 633.797 382.961 640.845 382.229Z" fill="#E8685B"/>
<path fill-rule="evenodd" clip-rule="evenodd" d="M730.21 373.129C730.53 373.145 730.846 373.171 731.16 373.209L731.168 373.211C736.972 373.922 741.725 378.557 742.355 384.612C743.084 391.652 737.961 397.954 730.915 398.683C723.867 399.41 717.559 394.293 716.83 387.254C716.405 383.161 717.958 379.32 720.715 376.678C720.71 380.475 721.701 385.091 726.559 385.153L725.798 377.802C725.49 374.824 728.158 373.216 730.21 373.129Z" fill="#E8685B"/>
<path fill-rule="evenodd" clip-rule="evenodd" d="M674.955 313.535C698.998 311.048 720.704 328.663 723.195 352.681L727.311 392.368C729.8 416.386 712.168 438.07 688.125 440.559C664.083 443.046 642.375 425.433 639.884 401.413L635.77 361.726C633.279 337.706 650.913 316.022 674.955 313.535Z" fill="#F4AD85"/>
<path fill-rule="evenodd" clip-rule="evenodd" d="M723.916 359.641L727.309 392.37C729.393 412.478 717.372 430.946 699.297 437.889C724.874 427.302 711.762 382.89 711.762 382.89C706.583 382.007 698.414 372.365 693.665 366.752C688.917 361.14 685.24 355.477 677.045 355.643C668.85 355.809 651.532 360.108 651.532 360.108C647.912 368.66 641.252 374.881 637.449 377.929L635.77 361.729C635.268 356.889 635.583 352.148 636.603 347.634C637.663 347.014 638.751 346.383 639.9 345.736C675.098 325.967 704.972 341.96 723.916 359.641Z" fill="#ED9072"/>
<path fill-rule="evenodd" clip-rule="evenodd" d="M642.314 349.306L649.421 352.322C649.421 352.322 656.041 348.251 663.751 350.019C663.751 350.019 679.356 344.289 687.625 347.482C695.893 350.675 691.03 339.204 689.514 338.701C687.997 338.199 672.338 337.207 665.502 338.519C658.668 339.831 648.382 341.434 648.382 341.434L642.314 349.306Z" fill="#010518"/>
<path fill-rule="evenodd" clip-rule="evenodd" d="M725.429 371.006L721.217 371.747C721.217 371.747 718.292 385.049 726.561 385.154L725.8 377.802C725.748 377.29 725.783 376.82 725.886 376.392L725.429 371.006Z" fill="#010518"/>
<path fill-rule="evenodd" clip-rule="evenodd" d="M663.753 350.021C670.176 341.36 680.671 339.592 688.833 351.752C696.289 362.861 707.363 382.089 725.996 380.52L726.09 380.179L726.045 380.184L724.997 367.779C724.997 367.779 726.566 368.188 728.471 368.635C729.465 362.154 730.157 353.935 729.115 346.403C726.956 330.814 705.245 308.042 680.755 307.165C656.266 306.288 638.55 320.816 635.039 329.103C631.53 337.39 628.067 356.186 628.067 356.186L632.375 362.34L637.018 374.578C648.283 363.63 647.126 353.278 652.023 348.06C654.674 345.238 658.64 345.229 663.753 350.021Z" fill="#0E1632"/>
<path fill-rule="evenodd" clip-rule="evenodd" d="M691.382 355.6C698.772 366.771 709.376 381.917 725.998 380.517L726.092 380.176L726.047 380.182L724.999 367.776C724.999 367.776 726.568 368.185 728.473 368.632C728.637 367.561 728.793 366.439 728.935 365.281C710.164 370.724 691.443 355.649 691.382 355.6Z" fill="#010518"/>
<path fill-rule="evenodd" clip-rule="evenodd" d="M672.067 454.542C672.067 454.542 660.632 548.262 660.858 551.305C661.084 554.347 664.122 569.003 664.122 569.003C664.122 569.003 658.601 559.757 657.248 552.093C655.894 544.428 652.283 492.583 652.283 492.583L658.374 489.316L652.733 488.978L662.044 459.863C662.044 459.863 663.111 457.702 664.579 456.856C666.044 456.01 671.39 453.331 671.474 453.291C671.558 453.249 672.9 453.104 673.564 453.544C673.564 453.544 672.457 454.299 672.067 454.542Z" fill="#484E6A"/>
<path fill-rule="evenodd" clip-rule="evenodd" d="M726.97 435.126C726.97 435.126 710.697 513.883 708.467 536.777C707.552 546.161 708.217 554.451 709.877 562.154C706.88 538.736 739.867 483.632 739.867 483.632L731.294 479.574L742.801 474.389C742.801 474.389 737.499 444.748 737.159 439.79C736.831 434.969 739.388 434.074 739.531 434.025C735.744 434.2 731.571 434.55 726.97 435.126Z" fill="#484E6A"/>
<path fill-rule="evenodd" clip-rule="evenodd" d="M1052.54 666.158H1038.3C1032.62 666.158 1027.97 661.518 1027.97 655.846C1027.97 650.174 1032.62 645.532 1038.3 645.532H1075.94C1080.44 645.532 1084.13 641.85 1084.13 637.347C1084.13 632.844 1080.44 629.158 1075.94 629.158H81.6422C77.1362 629.158 73.447 632.842 73.447 637.347C73.447 641.849 77.1396 645.532 81.6422 645.532H133.257C138.937 645.532 143.581 650.174 143.581 655.846C143.581 661.518 138.937 666.158 133.257 666.158H121.161C112.147 666.158 104.774 673.527 104.774 682.53C104.774 691.535 112.154 698.903 121.161 698.903H1052.54C1061.55 698.903 1068.93 691.535 1068.93 682.53C1068.93 673.527 1061.56 666.158 1052.54 666.158ZM1098.08 629.158C1093.55 629.158 1089.88 632.824 1089.88 637.347C1089.88 641.866 1093.55 645.532 1098.08 645.532C1102.6 645.532 1106.27 641.864 1106.27 637.347C1106.27 632.824 1102.6 629.158 1098.08 629.158Z" fill="#01020E"/>
<path fill-rule="evenodd" clip-rule="evenodd" d="M543.613 200.051H618.307C621.932 200.051 625.229 201.531 627.615 203.916C630.003 206.302 631.484 209.594 631.484 213.215V278.213C631.484 278.786 631.313 279.328 631.005 279.789C630.699 280.245 630.265 280.609 629.733 280.829H629.728C629.191 281.049 628.63 281.103 628.098 280.997C627.554 280.89 627.048 280.626 626.641 280.217L607.257 260.852H543.613C539.989 260.852 536.692 259.371 534.306 256.986C531.918 254.601 530.435 251.308 530.435 247.686V213.215C530.435 209.592 531.918 206.3 534.306 203.916C536.692 201.531 539.987 200.051 543.613 200.051ZM618.306 203.123H543.611C540.834 203.123 538.31 204.259 536.478 206.088C534.647 207.918 533.51 210.441 533.51 213.215V247.686C533.51 250.461 534.647 252.983 536.478 254.812C538.31 256.642 540.834 257.778 543.611 257.778H608.529L628.406 277.636V213.213C628.406 210.44 627.269 207.916 625.437 206.087C623.608 204.26 621.082 203.123 618.306 203.123Z" fill="#1A293D"/>
<path fill-rule="evenodd" clip-rule="evenodd" d="M542.99 212.904C542.525 212.904 542.151 212.527 542.151 212.065C542.151 211.6 542.527 211.225 542.99 211.225H618.928C619.393 211.225 619.77 211.6 619.77 212.065C619.77 212.528 619.393 212.904 618.928 212.904H542.99Z" fill="#1A293D"/>
<path fill-rule="evenodd" clip-rule="evenodd" d="M542.99 221.101C542.525 221.101 542.151 220.725 542.151 220.259C542.151 219.796 542.527 219.42 542.99 219.42H551.035C551.499 219.42 551.875 219.797 551.875 220.259C551.875 220.724 551.497 221.101 551.035 221.101H542.99ZM561.744 221.101C561.279 221.101 560.904 220.725 560.904 220.259C560.904 219.796 561.28 219.42 561.744 219.42H618.928C619.393 219.42 619.77 219.797 619.77 220.259C619.77 220.724 619.393 221.101 618.928 221.101H561.744Z" fill="#1A293D"/>
<path fill-rule="evenodd" clip-rule="evenodd" d="M542.99 229.3C542.525 229.3 542.151 228.923 542.151 228.46C542.151 227.995 542.527 227.619 542.99 227.619H618.928C619.393 227.619 619.77 227.995 619.77 228.46C619.77 228.923 619.393 229.3 618.928 229.3H542.99Z" fill="#1A293D"/>
<path fill-rule="evenodd" clip-rule="evenodd" d="M564.107 240.414C563.642 240.414 563.268 240.036 563.268 239.573C563.268 239.108 563.642 238.734 564.107 238.734H618.927C619.392 238.734 619.768 239.11 619.768 239.573C619.768 240.036 619.392 240.414 618.927 240.414H564.107Z" fill="#1A293D"/>
<path fill-rule="evenodd" clip-rule="evenodd" d="M588.586 249.304C588.121 249.304 587.745 248.927 587.745 248.464C587.745 248.001 588.123 247.625 588.586 247.625H618.927C619.392 247.625 619.768 248.001 619.768 248.464C619.768 248.929 619.392 249.304 618.927 249.304H588.586Z" fill="#1A293D"/>
<path fill-rule="evenodd" clip-rule="evenodd" d="M571.201 249.304C570.737 249.304 570.361 248.927 570.361 248.464C570.361 248.001 570.737 247.625 571.201 247.625H582.049C582.515 247.625 582.893 248.001 582.893 248.464C582.893 248.929 582.515 249.304 582.049 249.304H571.201Z" fill="#1A293D"/>
</g>
<defs>
<clipPath id="clip0_8124_224">
<rect width="823" height="699" fill="white" transform="matrix(-1 0 0 1 823 0)"/>
</clipPath>
</defs>
</svg>
